<svg width="469" height="84" viewBox="0 0 469 84" fill="none" xmlns="http://www.w3.org/2000/svg">
<path d="M56.856 5.68C56.648 6.112 56.432 6.688 56.208 7.408C56 8.128 55.696 9.208 55.296 10.648L54.624 13.12C53.808 16.08 53.304 18.168 53.112 19.384C53.064 19.656 52.936 19.88 52.728 20.056C52.52 20.248 52.208 20.344 51.792 20.344C51.696 20.344 51.352 19.672 50.76 18.328C50.184 16.968 49.424 15.16 48.48 12.904C47.904 11.56 47.32 10.312 46.728 9.16C46.136 7.992 45.736 7.32 45.528 7.144C45.256 6.936 45.12 6.712 45.12 6.472C45.12 6.36 45.224 6.208 45.432 6.016C45.656 5.824 45.88 5.728 46.104 5.728C46.248 5.728 46.352 5.76 46.416 5.824C46.48 5.872 46.568 5.976 46.68 6.136C46.888 6.44 47.232 7.104 47.712 8.128C48.192 9.136 48.68 10.24 49.176 11.44L51.144 16.216C51.768 17.688 52.128 18.552 52.224 18.808C52.256 18.504 52.4 17.784 52.656 16.648C52.928 15.512 53.248 14.232 53.616 12.808C54.16 10.744 54.6 9.12 54.936 7.936C55.288 6.736 55.616 5.784 55.92 5.08C56.192 4.456 56.424 4.032 56.616 3.808C56.808 3.584 57.024 3.472 57.264 3.472C57.344 3.472 57.472 3.6 57.648 3.856C57.824 4.096 57.912 4.256 57.912 4.336C57.912 4.384 57.784 4.52 57.528 4.744C57.272 4.968 57.048 5.28 56.856 5.68ZM69.9084 18.112C69.9084 18.304 69.8284 18.528 69.6684 18.784C69.5084 19.024 69.3484 19.144 69.1884 19.144C68.9164 19.144 68.7084 18.976 68.5644 18.64C68.4204 18.304 68.3484 17.912 68.3484 17.464C68.3484 17.08 68.3724 15.928 68.4204 14.008L68.4444 13.096C68.4444 12.728 68.3484 12.464 68.1564 12.304C67.4364 13.52 66.7644 14.576 66.1404 15.472C65.5164 16.368 64.7244 17.216 63.7644 18.016C62.8044 18.8 61.7964 19.192 60.7404 19.192C60.2284 19.192 59.8284 19.032 59.5404 18.712C59.2684 18.392 59.1324 17.976 59.1324 17.464C59.1324 16.824 59.4204 15.952 59.9964 14.848C60.5724 13.728 61.3084 12.6 62.2044 11.464C63.1004 10.312 63.9964 9.368 64.8924 8.632C65.4844 8.152 65.9564 7.832 66.3084 7.672C66.6604 7.496 66.9724 7.408 67.2444 7.408C67.5004 7.408 67.7644 7.488 68.0364 7.648C68.3084 7.808 68.5404 8.032 68.7324 8.32C68.9244 8.608 69.0204 8.936 69.0204 9.304C69.0204 9.8 68.8844 10.272 68.6124 10.72L69.0204 10.6C69.1964 10.6 69.3004 10.816 69.3324 11.248C69.3484 11.504 69.3644 12.024 69.3804 12.808C69.4124 13.592 69.4364 14.24 69.4524 14.752C69.4684 15.28 69.4844 15.792 69.5004 16.288C69.5164 16.784 69.5324 17.176 69.5484 17.464C69.5644 17.576 69.6284 17.696 69.7404 17.824C69.8524 17.936 69.9084 18.032 69.9084 18.112ZM67.8204 11.368C68.0124 10.888 68.1084 10.368 68.1084 9.808C68.1084 9.472 68.0044 9.184 67.7964 8.944C67.6044 8.688 67.3404 8.56 67.0044 8.56C66.6044 8.56 66.0924 8.832 65.4684 9.376C64.7484 9.984 63.9884 10.8 63.1884 11.824C62.3884 12.832 61.7244 13.832 61.1964 14.824C60.6684 15.816 60.4044 16.6 60.4044 17.176C60.4044 17.656 60.6284 17.896 61.0764 17.896C61.9404 17.896 62.7724 17.576 63.5724 16.936C64.3724 16.296 65.0844 15.536 65.7084 14.656C66.3484 13.76 67.0524 12.664 67.8204 11.368ZM82.8516 18.112C82.8516 18.304 82.7716 18.528 82.6116 18.784C82.4516 19.024 82.2916 19.144 82.1316 19.144C81.8596 19.144 81.6516 18.976 81.5076 18.64C81.3636 18.304 81.2916 17.912 81.2916 17.464C81.2916 17.08 81.3156 15.928 81.3636 14.008L81.3876 13.096C81.3876 12.728 81.2916 12.464 81.0996 12.304C80.3796 13.52 79.7076 14.576 79.0836 15.472C78.4596 16.368 77.6676 17.216 76.7076 18.016C75.7476 18.8 74.7396 19.192 73.6836 19.192C73.1716 19.192 72.7716 19.032 72.4836 18.712C72.2116 18.392 72.0756 17.976 72.0756 17.464C72.0756 16.824 72.3636 15.952 72.9396 14.848C73.5156 13.728 74.2516 12.6 75.1476 11.464C76.0436 10.312 76.9396 9.368 77.8356 8.632C78.4276 8.152 78.8996 7.832 79.2516 7.672C79.6036 7.496 79.9156 7.408 80.1876 7.408C80.4436 7.408 80.7076 7.488 80.9796 7.648C81.2516 7.808 81.4836 8.032 81.6756 8.32C81.8676 8.608 81.9636 8.936 81.9636 9.304C81.9636 9.8 81.8276 10.272 81.5556 10.72L81.9636 10.6C82.1396 10.6 82.2436 10.816 82.2756 11.248C82.2916 11.504 82.3076 12.024 82.3236 12.808C82.3556 13.592 82.3796 14.24 82.3956 14.752C82.4116 15.28 82.4276 15.792 82.4436 16.288C82.4596 16.784 82.4756 17.176 82.4916 17.464C82.5076 17.576 82.5716 17.696 82.6836 17.824C82.7956 17.936 82.8516 18.032 82.8516 18.112ZM80.7636 11.368C80.9556 10.888 81.0516 10.368 81.0516 9.808C81.0516 9.472 80.9476 9.184 80.7396 8.944C80.5476 8.688 80.2836 8.56 79.9476 8.56C79.5476 8.56 79.0356 8.832 78.4116 9.376C77.6916 9.984 76.9316 10.8 76.1316 11.824C75.3316 12.832 74.6676 13.832 74.1396 14.824C73.6116 15.816 73.3476 16.6 73.3476 17.176C73.3476 17.656 73.5716 17.896 74.0196 17.896C74.8836 17.896 75.7156 17.576 76.5156 16.936C77.3156 16.296 78.0276 15.536 78.6516 14.656C79.2916 13.76 79.9956 12.664 80.7636 11.368ZM94.5227 10.024C93.0507 10.28 92.2267 10.424 92.0507 10.456L90.4907 10.72C90.4907 11.552 90.4987 12.424 90.5147 13.336C90.5467 14.248 90.5867 15.048 90.6347 15.736C90.6987 16.664 90.8107 17.376 90.9707 17.872C91.1307 18.368 91.2187 18.648 91.2347 18.712C91.2347 18.872 91.1307 19.016 90.9227 19.144C90.7307 19.288 90.5467 19.36 90.3707 19.36C90.2747 19.36 90.1947 19.328 90.1307 19.264C90.0667 19.216 90.0107 19.128 89.9627 19C89.8667 18.776 89.7707 18.36 89.6747 17.752C89.5947 17.144 89.5307 16.472 89.4827 15.736C89.4347 15.08 89.3947 14.32 89.3627 13.456C89.3467 12.576 89.3387 11.728 89.3387 10.912C88.4427 11.056 87.5227 11.232 86.5787 11.44C85.7307 11.616 85.2267 11.704 85.0667 11.704C84.8747 11.704 84.6907 11.648 84.5147 11.536C84.3547 11.424 84.2747 11.272 84.2747 11.08C84.2747 10.872 84.3467 10.736 84.4907 10.672C84.6347 10.608 84.8747 10.576 85.2107 10.576C85.4507 10.576 85.8027 10.536 86.2667 10.456C86.7307 10.36 87.0267 10.296 87.1547 10.264C88.2267 10.056 88.9547 9.92 89.3387 9.856C89.3387 9.52 89.3227 9.08 89.2907 8.536C89.2587 7.8 89.2427 7.24 89.2427 6.856C89.2427 6.232 89.2587 5.752 89.2907 5.416C89.3387 5.064 89.4187 4.752 89.5307 4.48C89.6587 4.16 89.8987 4 90.2507 4C90.3947 4 90.4907 4.024 90.5387 4.072C90.5867 4.12 90.6107 4.208 90.6107 4.336C90.6107 4.432 90.5707 4.712 90.4907 5.176C90.4107 5.64 90.3707 6.256 90.3707 7.024C90.3707 7.616 90.3867 8.28 90.4187 9.016L90.4427 9.664C91.1627 9.552 92.5867 9.256 94.7147 8.776C94.8427 8.744 94.9467 8.632 95.0267 8.44C95.1227 8.248 95.2187 8.152 95.3147 8.152C95.4907 8.152 95.6667 8.256 95.8427 8.464C96.0347 8.656 96.1307 8.856 96.1307 9.064C96.1307 9.336 96.0107 9.544 95.7707 9.688C95.5467 9.832 95.1307 9.944 94.5227 10.024ZM107.894 18.112C107.894 18.304 107.814 18.528 107.654 18.784C107.494 19.024 107.334 19.144 107.174 19.144C106.902 19.144 106.694 18.976 106.55 18.64C106.406 18.304 106.334 17.912 106.334 17.464C106.334 17.08 106.358 15.928 106.406 14.008L106.43 13.096C106.43 12.728 106.334 12.464 106.142 12.304C105.422 13.52 104.75 14.576 104.126 15.472C103.502 16.368 102.71 17.216 101.75 18.016C100.79 18.8 99.7821 19.192 98.7261 19.192C98.2141 19.192 97.8141 19.032 97.5261 18.712C97.2541 18.392 97.1181 17.976 97.1181 17.464C97.1181 16.824 97.4061 15.952 97.9821 14.848C98.5581 13.728 99.2941 12.6 100.19 11.464C101.086 10.312 101.982 9.368 102.878 8.632C103.47 8.152 103.942 7.832 104.294 7.672C104.646 7.496 104.958 7.408 105.23 7.408C105.486 7.408 105.75 7.488 106.022 7.648C106.294 7.808 106.526 8.032 106.718 8.32C106.91 8.608 107.006 8.936 107.006 9.304C107.006 9.8 106.87 10.272 106.598 10.72L107.006 10.6C107.182 10.6 107.286 10.816 107.318 11.248C107.334 11.504 107.35 12.024 107.366 12.808C107.398 13.592 107.422 14.24 107.438 14.752C107.454 15.28 107.47 15.792 107.486 16.288C107.502 16.784 107.518 17.176 107.534 17.464C107.55 17.576 107.614 17.696 107.726 17.824C107.838 17.936 107.894 18.032 107.894 18.112ZM105.806 11.368C105.998 10.888 106.094 10.368 106.094 9.808C106.094 9.472 105.99 9.184 105.782 8.944C105.59 8.688 105.326 8.56 104.99 8.56C104.59 8.56 104.078 8.832 103.454 9.376C102.734 9.984 101.974 10.8 101.174 11.824C100.374 12.832 99.7101 13.832 99.1821 14.824C98.6541 15.816 98.3901 16.6 98.3901 17.176C98.3901 17.656 98.6141 17.896 99.0621 17.896C99.9261 17.896 100.758 17.576 101.558 16.936C102.358 16.296 103.07 15.536 103.694 14.656C104.334 13.76 105.038 12.664 105.806 11.368ZM110.925 22C110.765 22 110.629 21.952 110.517 21.856C110.421 21.776 110.373 21.664 110.373 21.52C110.373 21.424 110.461 21.192 110.637 20.824C110.829 20.472 110.949 20.256 110.997 20.176L111.669 18.88L112.101 17.776C112.277 17.296 112.421 16.944 112.533 16.72C112.645 16.48 112.757 16.36 112.869 16.36C113.045 16.36 113.229 16.464 113.421 16.672C113.629 16.864 113.733 17.048 113.733 17.224C113.733 17.464 113.541 17.984 113.157 18.784C112.789 19.584 112.381 20.32 111.933 20.992C111.485 21.664 111.149 22 110.925 22ZM132.982 9.736C132.854 9.736 132.71 9.672 132.55 9.544C132.39 9.4 132.278 9.328 132.214 9.328C131.782 9.328 131.094 9.624 130.15 10.216C129.206 10.808 128.238 11.504 127.246 12.304C126.254 13.104 125.494 13.784 124.966 14.344L124.99 14.776C126.206 15.336 127.558 15.936 129.046 16.576C130.534 17.216 131.566 17.592 132.142 17.704C132.366 17.736 132.59 17.76 132.814 17.776C133.038 17.792 133.198 17.8 133.294 17.8C133.438 17.8 133.558 17.808 133.654 17.824C133.75 17.84 133.798 17.872 133.798 17.92C133.798 18.112 133.646 18.304 133.342 18.496C133.054 18.688 132.614 18.784 132.022 18.784C131.494 18.784 130.774 18.592 129.862 18.208C128.966 17.808 127.902 17.288 126.67 16.648L125.158 15.904C125.366 17.936 125.47 19.056 125.47 19.264C125.47 19.44 125.382 19.584 125.206 19.696C125.03 19.808 124.838 19.864 124.63 19.864C124.502 19.864 124.398 19.672 124.318 19.288C124.238 18.904 124.142 18.144 124.03 17.008L123.862 15.544C123.67 15.464 123.502 15.352 123.358 15.208C123.214 15.048 123.142 14.904 123.142 14.776C123.142 14.584 123.302 14.36 123.622 14.104C123.606 13.24 123.558 12.008 123.478 10.408C123.414 8.808 123.366 7.64 123.334 6.904L123.214 3.568C123.214 3.12 123.27 2.736 123.382 2.416C123.494 2.096 123.742 1.936 124.126 1.936C124.27 1.936 124.366 1.968 124.414 2.032C124.462 2.08 124.486 2.184 124.486 2.344C124.486 3.08 124.534 4.792 124.63 7.48C124.742 10.152 124.83 12.056 124.894 13.192C128.462 9.8 131.07 8.104 132.718 8.104C133.054 8.104 133.334 8.168 133.558 8.296C133.798 8.408 133.918 8.528 133.918 8.656C133.918 8.88 133.806 9.12 133.582 9.376C133.374 9.616 133.174 9.736 132.982 9.736ZM144.055 19.408C143.735 19.408 143.439 19.072 143.167 18.4C142.911 17.728 142.751 17.032 142.687 16.312C142.623 15.624 142.575 14.232 142.543 12.136C142.527 11.8 142.519 11.464 142.519 11.128C142.519 10.776 142.511 10.48 142.495 10.24C142.031 11.344 141.399 12.6 140.599 14.008C139.799 15.416 138.991 16.624 138.175 17.632C137.375 18.64 136.719 19.144 136.207 19.144C135.679 19.144 135.327 18.864 135.151 18.304C134.991 17.744 134.911 16.856 134.911 15.64C134.911 14.504 135.055 13.216 135.343 11.776C135.647 10.336 135.991 9.24 136.375 8.488C136.535 8.152 136.671 7.928 136.783 7.816C136.895 7.688 137.023 7.624 137.167 7.624C137.567 7.624 137.767 7.704 137.767 7.864C137.767 7.944 137.687 8.128 137.527 8.416C137.095 9.216 136.719 10.176 136.399 11.296C136.079 12.416 135.919 13.92 135.919 15.808C135.919 17.072 136.095 17.704 136.447 17.704C136.863 17.704 137.423 17.248 138.127 16.336C138.847 15.408 139.559 14.304 140.263 13.024C140.967 11.744 141.503 10.632 141.871 9.688C141.999 9.368 142.143 8.872 142.303 8.2C142.351 7.928 142.399 7.736 142.447 7.624C142.495 7.496 142.551 7.432 142.615 7.432C142.791 7.432 142.983 7.504 143.191 7.648C143.399 7.792 143.503 7.944 143.503 8.104C143.503 8.872 143.527 10.192 143.575 12.064C143.639 13.92 143.711 15.208 143.791 15.928C143.855 16.552 143.967 17.04 144.127 17.392C144.303 17.744 144.471 18.024 144.631 18.232C144.791 18.424 144.871 18.544 144.871 18.592C144.871 18.848 144.799 19.048 144.655 19.192C144.511 19.336 144.311 19.408 144.055 19.408ZM147.871 4.336C147.599 4.336 147.319 4.224 147.031 4C146.759 3.776 146.623 3.592 146.623 3.448C146.623 3.272 146.703 3.104 146.863 2.944C147.039 2.784 147.215 2.704 147.391 2.704C147.391 2.704 147.447 2.728 147.559 2.776C147.687 2.808 147.831 2.912 147.991 3.088C148.119 3.216 148.263 3.384 148.423 3.592C148.583 3.8 148.663 3.928 148.663 3.976C148.663 4.216 148.399 4.336 147.871 4.336ZM148.591 19.552C148.367 19.536 148.199 19.176 148.087 18.472C147.991 17.768 147.887 16.432 147.775 14.464C147.711 13.168 147.655 11.904 147.607 10.672C147.559 9.424 147.527 8.464 147.511 7.792C147.511 7.616 147.535 7.488 147.583 7.408C147.647 7.312 147.759 7.264 147.919 7.264C148.287 7.264 148.519 7.416 148.615 7.72C148.711 8.024 148.759 8.608 148.759 9.472L148.735 12.304C148.735 13.92 148.783 15.216 148.879 16.192C148.879 16.24 148.951 16.752 149.095 17.728C149.207 18.4 149.263 18.848 149.263 19.072C149.263 19.232 149.191 19.352 149.047 19.432C148.919 19.528 148.767 19.568 148.591 19.552ZM169.66 9.736C169.532 9.736 169.388 9.672 169.229 9.544C169.068 9.4 168.956 9.328 168.893 9.328C168.461 9.328 167.772 9.624 166.828 10.216C165.884 10.808 164.916 11.504 163.924 12.304C162.932 13.104 162.172 13.784 161.644 14.344L161.668 14.776C162.884 15.336 164.236 15.936 165.724 16.576C167.212 17.216 168.244 17.592 168.82 17.704C169.044 17.736 169.268 17.76 169.492 17.776C169.717 17.792 169.877 17.8 169.972 17.8C170.116 17.8 170.237 17.808 170.333 17.824C170.429 17.84 170.477 17.872 170.477 17.92C170.477 18.112 170.325 18.304 170.02 18.496C169.732 18.688 169.292 18.784 168.7 18.784C168.172 18.784 167.452 18.592 166.54 18.208C165.644 17.808 164.58 17.288 163.348 16.648L161.836 15.904C162.044 17.936 162.148 19.056 162.148 19.264C162.148 19.44 162.06 19.584 161.884 19.696C161.708 19.808 161.516 19.864 161.308 19.864C161.18 19.864 161.076 19.672 160.996 19.288C160.916 18.904 160.82 18.144 160.708 17.008L160.54 15.544C160.348 15.464 160.18 15.352 160.036 15.208C159.892 15.048 159.82 14.904 159.82 14.776C159.82 14.584 159.98 14.36 160.3 14.104C160.284 13.24 160.236 12.008 160.156 10.408C160.092 8.808 160.044 7.64 160.012 6.904L159.892 3.568C159.892 3.12 159.948 2.736 160.06 2.416C160.172 2.096 160.42 1.936 160.804 1.936C160.948 1.936 161.044 1.968 161.092 2.032C161.14 2.08 161.164 2.184 161.164 2.344C161.164 3.08 161.212 4.792 161.308 7.48C161.42 10.152 161.508 12.056 161.572 13.192C165.14 9.8 167.748 8.104 169.397 8.104C169.733 8.104 170.013 8.168 170.237 8.296C170.477 8.408 170.597 8.528 170.597 8.656C170.597 8.88 170.485 9.12 170.26 9.376C170.053 9.616 169.852 9.736 169.66 9.736ZM181.837 18.112C181.837 18.304 181.757 18.528 181.597 18.784C181.437 19.024 181.277 19.144 181.117 19.144C180.845 19.144 180.637 18.976 180.493 18.64C180.349 18.304 180.277 17.912 180.277 17.464C180.277 17.08 180.301 15.928 180.349 14.008L180.373 13.096C180.373 12.728 180.277 12.464 180.085 12.304C179.365 13.52 178.693 14.576 178.069 15.472C177.445 16.368 176.653 17.216 175.693 18.016C174.733 18.8 173.725 19.192 172.669 19.192C172.157 19.192 171.757 19.032 171.469 18.712C171.197 18.392 171.061 17.976 171.061 17.464C171.061 16.824 171.349 15.952 171.925 14.848C172.501 13.728 173.237 12.6 174.133 11.464C175.029 10.312 175.925 9.368 176.821 8.632C177.413 8.152 177.885 7.832 178.237 7.672C178.589 7.496 178.901 7.408 179.173 7.408C179.429 7.408 179.693 7.488 179.965 7.648C180.237 7.808 180.469 8.032 180.661 8.32C180.853 8.608 180.949 8.936 180.949 9.304C180.949 9.8 180.813 10.272 180.541 10.72L180.949 10.6C181.125 10.6 181.229 10.816 181.261 11.248C181.277 11.504 181.293 12.024 181.309 12.808C181.341 13.592 181.365 14.24 181.381 14.752C181.397 15.28 181.413 15.792 181.429 16.288C181.445 16.784 181.461 17.176 181.477 17.464C181.493 17.576 181.557 17.696 181.669 17.824C181.781 17.936 181.837 18.032 181.837 18.112ZM179.749 11.368C179.941 10.888 180.037 10.368 180.037 9.808C180.037 9.472 179.933 9.184 179.725 8.944C179.533 8.688 179.269 8.56 178.933 8.56C178.533 8.56 178.021 8.832 177.397 9.376C176.677 9.984 175.917 10.8 175.117 11.824C174.317 12.832 173.653 13.832 173.125 14.824C172.597 15.816 172.333 16.6 172.333 17.176C172.333 17.656 172.557 17.896 173.005 17.896C173.869 17.896 174.701 17.576 175.501 16.936C176.301 16.296 177.013 15.536 177.637 14.656C178.277 13.76 178.981 12.664 179.749 11.368ZM193.677 19.408C193.357 19.408 193.061 19.072 192.789 18.4C192.533 17.728 192.373 17.032 192.309 16.312C192.245 15.624 192.197 14.232 192.165 12.136C192.149 11.8 192.141 11.464 192.141 11.128C192.141 10.776 192.133 10.48 192.117 10.24C191.653 11.344 191.021 12.6 190.221 14.008C189.421 15.416 188.613 16.624 187.797 17.632C186.997 18.64 186.341 19.144 185.829 19.144C185.301 19.144 184.949 18.864 184.773 18.304C184.613 17.744 184.533 16.856 184.533 15.64C184.533 14.504 184.677 13.216 184.965 11.776C185.269 10.336 185.613 9.24 185.997 8.488C186.157 8.152 186.293 7.928 186.405 7.816C186.517 7.688 186.645 7.624 186.789 7.624C187.189 7.624 187.389 7.704 187.389 7.864C187.389 7.944 187.309 8.128 187.149 8.416C186.717 9.216 186.341 10.176 186.021 11.296C185.701 12.416 185.541 13.92 185.541 15.808C185.541 17.072 185.717 17.704 186.069 17.704C186.485 17.704 187.045 17.248 187.749 16.336C188.469 15.408 189.181 14.304 189.885 13.024C190.589 11.744 191.125 10.632 191.493 9.688C191.621 9.368 191.765 8.872 191.925 8.2C191.973 7.928 192.021 7.736 192.069 7.624C192.117 7.496 192.173 7.432 192.237 7.432C192.413 7.432 192.605 7.504 192.813 7.648C193.021 7.792 193.125 7.944 193.125 8.104C193.125 8.872 193.149 10.192 193.197 12.064C193.261 13.92 193.333 15.208 193.413 15.928C193.477 16.552 193.589 17.04 193.749 17.392C193.925 17.744 194.093 18.024 194.253 18.232C194.413 18.424 194.493 18.544 194.493 18.592C194.493 18.848 194.421 19.048 194.277 19.192C194.133 19.336 193.933 19.408 193.677 19.408ZM204.885 24.664C204.197 25.32 203.477 25.848 202.725 26.248C201.989 26.664 201.349 26.872 200.805 26.872C200.501 26.872 200.285 26.792 200.157 26.632C200.029 26.488 199.965 26.312 199.965 26.104C199.965 25.912 200.325 25.688 201.045 25.432C202.133 25.08 203.141 24.488 204.069 23.656C204.789 23.016 205.317 22.288 205.653 21.472C205.989 20.656 206.157 19.824 206.157 18.976C206.157 18.016 206.093 17.136 205.965 16.336C205.853 15.536 205.669 14.552 205.413 13.384C205.125 12.152 204.925 11.104 204.813 10.24C204.541 10.976 204.117 11.864 203.541 12.904C202.981 13.944 202.309 14.944 201.525 15.904C200.789 16.816 200.117 17.496 199.509 17.944C198.917 18.392 198.341 18.616 197.781 18.616C197.301 18.616 196.941 18.432 196.701 18.064C196.477 17.68 196.365 17.16 196.365 16.504C196.365 15.416 196.701 14.136 197.373 12.664C198.045 11.192 198.885 9.928 199.893 8.872C200.901 7.816 201.893 7.288 202.869 7.288C203.205 7.288 203.461 7.408 203.637 7.648C203.829 7.888 203.925 8.176 203.925 8.512C203.925 8.944 203.837 9.16 203.661 9.16C203.613 9.16 203.549 9.104 203.469 8.992C203.405 8.864 203.325 8.752 203.229 8.656C203.133 8.56 203.029 8.512 202.917 8.512C202.101 8.512 201.269 8.968 200.421 9.88C199.589 10.792 198.893 11.864 198.333 13.096C197.789 14.312 197.517 15.312 197.517 16.096C197.517 16.528 197.573 16.84 197.685 17.032C197.813 17.224 198.005 17.32 198.261 17.32C198.645 17.32 199.109 17.096 199.653 16.648C200.197 16.2 200.845 15.496 201.597 14.536C202.269 13.688 202.877 12.704 203.421 11.584C203.981 10.448 204.405 9.368 204.693 8.344C204.725 8.248 204.773 8.168 204.837 8.104C204.917 8.04 205.005 8.008 205.101 8.008C205.245 8.008 205.389 8.056 205.533 8.152C205.693 8.232 205.773 8.32 205.773 8.416C205.773 8.48 205.757 8.552 205.725 8.632C205.709 8.696 205.693 8.736 205.677 8.752C205.789 9.632 206.053 11 206.469 12.856C206.773 14.168 206.997 15.272 207.141 16.168C207.301 17.048 207.381 17.912 207.381 18.76C207.381 20.008 207.133 21.144 206.637 22.168C206.141 23.192 205.557 24.024 204.885 24.664ZM219.189 13.24C219.189 13.528 218.973 14.16 218.541 15.136C218.125 16.112 217.485 17.016 216.621 17.848C215.773 18.68 214.725 19.096 213.477 19.096C212.453 19.096 211.597 18.776 210.909 18.136C210.221 17.496 209.877 16.512 209.877 15.184C209.877 13.936 210.165 12.704 210.741 11.488C211.317 10.256 212.069 9.256 212.997 8.488C213.925 7.704 214.885 7.312 215.877 7.312C216.469 7.312 216.965 7.448 217.365 7.72C217.781 7.976 217.989 8.352 217.989 8.848C217.989 9.408 217.669 9.952 217.029 10.48C216.405 11.008 215.589 11.472 214.581 11.872C213.573 12.272 212.533 12.56 211.461 12.736C211.269 13.472 211.173 14.192 211.173 14.896C211.173 15.824 211.389 16.544 211.821 17.056C212.269 17.568 212.901 17.824 213.717 17.824C214.949 17.824 215.949 17.384 216.717 16.504C217.485 15.624 218.125 14.632 218.637 13.528C218.669 13.464 218.725 13.344 218.805 13.168C218.885 12.976 218.957 12.88 219.021 12.88C219.133 12.88 219.189 13 219.189 13.24ZM215.589 8.296C214.981 8.296 214.397 8.496 213.837 8.896C213.277 9.296 212.805 9.776 212.421 10.336C212.053 10.896 211.813 11.392 211.701 11.824C212.437 11.744 213.213 11.536 214.029 11.2C214.845 10.864 215.525 10.496 216.069 10.096C216.629 9.696 216.909 9.368 216.909 9.112C216.909 8.856 216.773 8.656 216.501 8.512C216.245 8.368 215.941 8.296 215.589 8.296ZM222.642 18.88C222.45 18.88 222.266 18.656 222.09 18.208C221.93 17.744 221.85 17.048 221.85 16.12C221.866 14.312 221.89 12.128 221.922 9.568C221.97 7.008 222.01 5.08 222.042 3.784C222.058 3.32 222.138 2.888 222.282 2.488C222.442 2.088 222.714 1.888 223.098 1.888C223.226 1.888 223.306 1.96 223.338 2.104C223.386 2.232 223.41 2.488 223.41 2.872C223.41 2.888 223.402 2.944 223.386 3.04C223.386 3.12 223.386 3.272 223.386 3.496C223.098 7.704 222.954 11.808 222.954 15.808C222.954 16.32 223.066 16.864 223.29 17.44C223.53 18.016 223.65 18.32 223.65 18.352C223.65 18.512 223.546 18.64 223.338 18.736C223.13 18.832 222.898 18.88 222.642 18.88ZM235.607 13.24C235.607 13.528 235.391 14.16 234.959 15.136C234.543 16.112 233.903 17.016 233.039 17.848C232.191 18.68 231.143 19.096 229.895 19.096C228.871 19.096 228.015 18.776 227.327 18.136C226.639 17.496 226.295 16.512 226.295 15.184C226.295 13.936 226.583 12.704 227.159 11.488C227.735 10.256 228.487 9.256 229.415 8.488C230.343 7.704 231.303 7.312 232.295 7.312C232.887 7.312 233.383 7.448 233.783 7.72C234.199 7.976 234.407 8.352 234.407 8.848C234.407 9.408 234.087 9.952 233.447 10.48C232.823 11.008 232.007 11.472 230.999 11.872C229.991 12.272 228.951 12.56 227.879 12.736C227.687 13.472 227.591 14.192 227.591 14.896C227.591 15.824 227.807 16.544 228.239 17.056C228.687 17.568 229.319 17.824 230.135 17.824C231.367 17.824 232.367 17.384 233.135 16.504C233.903 15.624 234.543 14.632 235.055 13.528C235.087 13.464 235.143 13.344 235.223 13.168C235.303 12.976 235.375 12.88 235.439 12.88C235.551 12.88 235.607 13 235.607 13.24ZM232.007 8.296C231.399 8.296 230.815 8.496 230.255 8.896C229.695 9.296 229.223 9.776 228.839 10.336C228.471 10.896 228.231 11.392 228.119 11.824C228.855 11.744 229.631 11.536 230.447 11.2C231.263 10.864 231.943 10.496 232.487 10.096C233.047 9.696 233.327 9.368 233.327 9.112C233.327 8.856 233.191 8.656 232.919 8.512C232.663 8.368 232.359 8.296 232.007 8.296ZM259.318 19.456C259.03 19.456 258.886 19.312 258.886 19.024C258.886 15.792 258.782 13.32 258.574 11.608C258.366 9.88 258.006 9.016 257.494 9.016C256.63 9.016 255.366 12.032 253.702 18.064V18.088C253.702 18.28 253.638 18.448 253.51 18.592C253.382 18.72 253.214 18.784 253.006 18.784C252.718 18.784 252.574 18.64 252.574 18.352C252.574 17.712 252.606 16.72 252.67 15.376C252.734 13.872 252.766 12.688 252.766 11.824C252.766 10.624 252.726 9.776 252.646 9.28C252.582 8.768 252.43 8.512 252.19 8.512C251.646 8.512 250.958 9.512 250.126 11.512C249.294 13.496 248.422 15.84 247.51 18.544L247.294 19.168C247.23 19.328 247.134 19.464 247.006 19.576C246.894 19.688 246.766 19.744 246.622 19.744C246.43 19.744 246.302 19.728 246.238 19.696C246.174 19.664 246.134 19.568 246.118 19.408C246.038 18.624 245.974 17.576 245.926 16.264C245.894 15.928 245.862 15.376 245.83 14.608C245.67 11.904 245.526 10.08 245.398 9.136C245.27 8.176 245.206 7.64 245.206 7.528C245.206 7.4 245.27 7.248 245.398 7.072C245.526 6.896 245.646 6.808 245.758 6.808C246.014 6.808 246.222 6.992 246.382 7.36C246.462 7.536 246.55 8.24 246.646 9.472C246.742 10.704 246.822 12.232 246.886 14.056L247.006 17.728C247.886 15.008 248.798 12.544 249.742 10.336C250.686 8.112 251.55 7 252.334 7C252.862 7 253.222 7.384 253.414 8.152C253.606 8.92 253.702 10.032 253.702 11.488C253.702 12.256 253.686 13.36 253.654 14.8L253.63 15.904C254.286 13.616 254.934 11.696 255.574 10.144C256.23 8.592 256.886 7.816 257.542 7.816C259.19 7.816 260.014 11.464 260.014 18.76C260.014 18.952 259.95 19.112 259.822 19.24C259.694 19.384 259.526 19.456 259.318 19.456ZM272.327 13.24C272.327 13.528 272.111 14.16 271.679 15.136C271.263 16.112 270.623 17.016 269.759 17.848C268.911 18.68 267.863 19.096 266.615 19.096C265.591 19.096 264.735 18.776 264.047 18.136C263.359 17.496 263.015 16.512 263.015 15.184C263.015 13.936 263.303 12.704 263.879 11.488C264.455 10.256 265.207 9.256 266.135 8.488C267.063 7.704 268.023 7.312 269.015 7.312C269.607 7.312 270.103 7.448 270.503 7.72C270.919 7.976 271.127 8.352 271.127 8.848C271.127 9.408 270.807 9.952 270.167 10.48C269.543 11.008 268.727 11.472 267.719 11.872C266.711 12.272 265.671 12.56 264.599 12.736C264.407 13.472 264.311 14.192 264.311 14.896C264.311 15.824 264.527 16.544 264.959 17.056C265.407 17.568 266.039 17.824 266.855 17.824C268.087 17.824 269.087 17.384 269.855 16.504C270.623 15.624 271.263 14.632 271.775 13.528C271.807 13.464 271.863 13.344 271.943 13.168C272.023 12.976 272.095 12.88 272.159 12.88C272.271 12.88 272.327 13 272.327 13.24ZM268.727 8.296C268.119 8.296 267.535 8.496 266.975 8.896C266.415 9.296 265.943 9.776 265.559 10.336C265.191 10.896 264.951 11.392 264.839 11.824C265.575 11.744 266.351 11.536 267.167 11.2C267.983 10.864 268.663 10.496 269.207 10.096C269.767 9.696 270.047 9.368 270.047 9.112C270.047 8.856 269.911 8.656 269.639 8.512C269.383 8.368 269.079 8.296 268.727 8.296ZM282.574 3.376C282.27 3.376 281.998 3.288 281.758 3.112C281.518 2.92 281.326 2.712 281.182 2.488C281.038 2.264 280.966 2.096 280.966 1.984C280.966 1.808 281.046 1.64 281.206 1.48C281.382 1.32 281.558 1.24 281.734 1.24C281.846 1.24 281.942 1.296 282.022 1.408C282.118 1.504 282.222 1.656 282.334 1.864C282.446 2.088 282.558 2.256 282.67 2.368C282.718 2.416 282.814 2.52 282.958 2.68C283.118 2.824 283.198 2.92 283.198 2.968C283.198 3.24 282.99 3.376 282.574 3.376ZM281.47 23.656C280.798 23.656 280.222 23.536 279.742 23.296C279.262 23.072 278.902 22.8 278.662 22.48C278.422 22.16 278.302 21.856 278.302 21.568C278.302 21.44 278.358 21.312 278.47 21.184C278.566 21.056 278.646 20.992 278.71 20.992C278.806 20.992 278.886 21.032 278.95 21.112C278.998 21.192 279.038 21.256 279.07 21.304C279.39 21.736 279.71 22.064 280.03 22.288C280.334 22.512 280.71 22.624 281.158 22.624C281.862 22.624 282.35 22.384 282.622 21.904C282.894 21.44 283.03 20.72 283.03 19.744C283.03 19.216 282.99 18.56 282.91 17.776C282.846 16.976 282.774 16.224 282.694 15.52C282.678 15.296 282.654 15.072 282.622 14.848C282.59 14.624 282.566 14.4 282.55 14.176C282.454 13.088 282.294 11.816 282.07 10.36C281.91 9.288 281.83 8.616 281.83 8.344C281.83 8.12 281.854 7.976 281.902 7.912C281.95 7.832 282.078 7.792 282.286 7.792C282.574 7.792 282.79 7.992 282.934 8.392C283.094 8.776 283.206 9.368 283.27 10.168C283.334 11.128 283.478 12.512 283.702 14.32C284.022 17.264 284.182 19.032 284.182 19.624C284.182 20.968 283.934 21.976 283.438 22.648C282.942 23.32 282.286 23.656 281.47 23.656ZM296.249 19.408C295.929 19.408 295.633 19.072 295.361 18.4C295.105 17.728 294.945 17.032 294.881 16.312C294.817 15.624 294.769 14.232 294.737 12.136C294.721 11.8 294.713 11.464 294.713 11.128C294.713 10.776 294.705 10.48 294.689 10.24C294.225 11.344 293.593 12.6 292.793 14.008C291.993 15.416 291.185 16.624 290.369 17.632C289.569 18.64 288.913 19.144 288.401 19.144C287.873 19.144 287.521 18.864 287.345 18.304C287.185 17.744 287.105 16.856 287.105 15.64C287.105 14.504 287.249 13.216 287.537 11.776C287.841 10.336 288.185 9.24 288.569 8.488C288.729 8.152 288.865 7.928 288.977 7.816C289.089 7.688 289.217 7.624 289.361 7.624C289.761 7.624 289.961 7.704 289.961 7.864C289.961 7.944 289.881 8.128 289.721 8.416C289.289 9.216 288.913 10.176 288.593 11.296C288.273 12.416 288.113 13.92 288.113 15.808C288.113 17.072 288.289 17.704 288.641 17.704C289.057 17.704 289.617 17.248 290.321 16.336C291.041 15.408 291.753 14.304 292.457 13.024C293.161 11.744 293.697 10.632 294.065 9.688C294.193 9.368 294.337 8.872 294.497 8.2C294.545 7.928 294.593 7.736 294.641 7.624C294.689 7.496 294.745 7.432 294.809 7.432C294.985 7.432 295.177 7.504 295.385 7.648C295.593 7.792 295.697 7.944 295.697 8.104C295.697 8.872 295.721 10.192 295.769 12.064C295.833 13.92 295.905 15.208 295.985 15.928C296.049 16.552 296.161 17.04 296.321 17.392C296.497 17.744 296.665 18.024 296.825 18.232C296.985 18.424 297.065 18.544 297.065 18.592C297.065 18.848 296.993 19.048 296.849 19.192C296.705 19.336 296.505 19.408 296.249 19.408ZM303.785 18.424C303.081 18.952 302.553 19.216 302.201 19.216C302.025 19.216 301.881 19.152 301.769 19.024C301.657 18.896 301.601 18.744 301.601 18.568C301.601 18.392 301.673 18.216 301.817 18.04C301.977 17.864 302.209 17.712 302.513 17.584C303.617 17.104 304.625 16.416 305.537 15.52C306.449 14.608 307.161 13.648 307.673 12.64C308.185 11.632 308.441 10.744 308.441 9.976C308.441 9.672 308.369 9.448 308.225 9.304C308.097 9.144 307.881 9.064 307.577 9.064C306.905 9.064 306.217 9.336 305.513 9.88C304.809 10.424 304.153 11.136 303.545 12.016C303.081 12.688 302.633 13.496 302.201 14.44C301.769 15.384 301.441 16.384 301.217 17.44C301.089 18 300.817 18.28 300.401 18.28C300.289 18.28 300.169 18.184 300.041 17.992C299.913 17.784 299.849 17.6 299.849 17.44C299.849 15.584 299.785 12.856 299.657 9.256C299.529 5.656 299.441 3.6 299.393 3.088C299.393 2.992 299.385 2.904 299.369 2.824C299.353 2.728 299.337 2.64 299.321 2.56C299.305 2.464 299.289 2.368 299.273 2.272C299.257 2.16 299.249 2.056 299.249 1.96C299.249 1.592 299.417 1.408 299.753 1.408C300.025 1.408 300.241 1.584 300.401 1.936C300.577 2.272 300.665 2.656 300.665 3.088V4.36C300.665 8.168 300.721 11.096 300.833 13.144C300.897 14.152 300.961 14.712 301.025 14.824C301.201 14.296 301.473 13.704 301.841 13.048C302.225 12.392 302.625 11.784 303.041 11.224C303.793 10.2 304.609 9.384 305.489 8.776C306.369 8.152 307.169 7.84 307.889 7.84C308.385 7.84 308.785 8 309.089 8.32C309.409 8.64 309.569 9.104 309.569 9.712C309.569 11.072 309.025 12.56 307.937 14.176C306.849 15.776 305.465 17.192 303.785 18.424ZM321.997 18.112C321.997 18.304 321.917 18.528 321.757 18.784C321.597 19.024 321.437 19.144 321.277 19.144C321.005 19.144 320.797 18.976 320.653 18.64C320.509 18.304 320.437 17.912 320.437 17.464C320.437 17.08 320.461 15.928 320.509 14.008L320.533 13.096C320.533 12.728 320.437 12.464 320.245 12.304C319.525 13.52 318.853 14.576 318.229 15.472C317.605 16.368 316.813 17.216 315.853 18.016C314.893 18.8 313.885 19.192 312.829 19.192C312.317 19.192 311.917 19.032 311.629 18.712C311.357 18.392 311.221 17.976 311.221 17.464C311.221 16.824 311.509 15.952 312.085 14.848C312.661 13.728 313.397 12.6 314.293 11.464C315.189 10.312 316.085 9.368 316.981 8.632C317.573 8.152 318.045 7.832 318.397 7.672C318.749 7.496 319.061 7.408 319.333 7.408C319.589 7.408 319.853 7.488 320.125 7.648C320.397 7.808 320.629 8.032 320.821 8.32C321.013 8.608 321.109 8.936 321.109 9.304C321.109 9.8 320.973 10.272 320.701 10.72L321.109 10.6C321.285 10.6 321.389 10.816 321.421 11.248C321.437 11.504 321.453 12.024 321.469 12.808C321.501 13.592 321.525 14.24 321.541 14.752C321.557 15.28 321.573 15.792 321.589 16.288C321.605 16.784 321.621 17.176 321.637 17.464C321.653 17.576 321.717 17.696 321.829 17.824C321.941 17.936 321.997 18.032 321.997 18.112ZM319.909 11.368C320.101 10.888 320.197 10.368 320.197 9.808C320.197 9.472 320.093 9.184 319.885 8.944C319.693 8.688 319.429 8.56 319.093 8.56C318.693 8.56 318.181 8.832 317.557 9.376C316.837 9.984 316.077 10.8 315.277 11.824C314.477 12.832 313.813 13.832 313.285 14.824C312.757 15.816 312.493 16.6 312.493 17.176C312.493 17.656 312.717 17.896 313.165 17.896C314.029 17.896 314.861 17.576 315.661 16.936C316.461 16.296 317.173 15.536 317.797 14.656C318.437 13.76 319.141 12.664 319.909 11.368ZM332.758 3.376C332.454 3.376 332.182 3.288 331.942 3.112C331.702 2.92 331.51 2.712 331.366 2.488C331.222 2.264 331.15 2.096 331.15 1.984C331.15 1.808 331.23 1.64 331.39 1.48C331.566 1.32 331.742 1.24 331.918 1.24C332.03 1.24 332.126 1.296 332.206 1.408C332.302 1.504 332.406 1.656 332.518 1.864C332.63 2.088 332.742 2.256 332.854 2.368C332.902 2.416 332.998 2.52 333.142 2.68C333.302 2.824 333.382 2.92 333.382 2.968C333.382 3.24 333.174 3.376 332.758 3.376ZM331.654 23.656C330.982 23.656 330.406 23.536 329.926 23.296C329.446 23.072 329.086 22.8 328.846 22.48C328.606 22.16 328.486 21.856 328.486 21.568C328.486 21.44 328.542 21.312 328.654 21.184C328.75 21.056 328.83 20.992 328.894 20.992C328.99 20.992 329.07 21.032 329.134 21.112C329.182 21.192 329.222 21.256 329.254 21.304C329.574 21.736 329.894 22.064 330.214 22.288C330.518 22.512 330.894 22.624 331.342 22.624C332.046 22.624 332.534 22.384 332.806 21.904C333.078 21.44 333.214 20.72 333.214 19.744C333.214 19.216 333.174 18.56 333.094 17.776C333.03 16.976 332.958 16.224 332.878 15.52C332.862 15.296 332.838 15.072 332.806 14.848C332.774 14.624 332.75 14.4 332.734 14.176C332.638 13.088 332.478 11.816 332.254 10.36C332.094 9.288 332.014 8.616 332.014 8.344C332.014 8.12 332.038 7.976 332.086 7.912C332.134 7.832 332.262 7.792 332.47 7.792C332.758 7.792 332.974 7.992 333.118 8.392C333.278 8.776 333.39 9.368 333.454 10.168C333.518 11.128 333.662 12.512 333.886 14.32C334.206 17.264 334.366 19.032 334.366 19.624C334.366 20.968 334.118 21.976 333.622 22.648C333.126 23.32 332.47 23.656 331.654 23.656ZM340.001 19.168C338.929 19.168 338.137 18.872 337.625 18.28C337.113 17.688 336.857 16.952 336.857 16.072C336.857 15.304 336.993 14.352 337.265 13.216C337.553 12.08 337.953 11.064 338.465 10.168C338.497 10.104 338.625 9.872 338.849 9.472C339.089 9.056 339.353 8.744 339.641 8.536C339.929 8.312 340.233 8.2 340.553 8.2C340.697 8.2 340.825 8.24 340.937 8.32C341.065 8.384 341.129 8.472 341.129 8.584C341.129 8.616 341.081 8.696 340.985 8.824C340.905 8.936 340.841 9.024 340.793 9.088C340.249 9.744 339.809 10.392 339.473 11.032C339.025 11.848 338.673 12.656 338.417 13.456C338.177 14.256 338.057 15.128 338.057 16.072C338.057 17.336 338.825 17.968 340.361 17.968C341.081 17.968 341.745 17.76 342.353 17.344C342.977 16.928 343.473 16.424 343.841 15.832C344.209 15.224 344.393 14.672 344.393 14.176C344.393 13.616 344.209 13.128 343.841 12.712C343.473 12.296 342.969 11.856 342.329 11.392C341.913 11.088 341.609 10.84 341.417 10.648C341.225 10.456 341.129 10.296 341.129 10.168C341.129 9.976 341.265 9.824 341.537 9.712C341.809 9.584 342.129 9.52 342.497 9.52C342.705 9.52 342.841 9.536 342.905 9.568C342.969 9.584 343.001 9.624 343.001 9.688C343.001 9.72 342.969 9.776 342.905 9.856C342.857 9.92 342.833 9.976 342.833 10.024C342.833 10.072 342.993 10.232 343.313 10.504C343.953 11.032 344.489 11.568 344.921 12.112C345.353 12.656 345.569 13.296 345.569 14.032C345.569 14.656 345.337 15.376 344.873 16.192C344.409 17.008 343.753 17.712 342.905 18.304C342.057 18.88 341.089 19.168 340.001 19.168ZM343.745 6.928C343.377 6.928 343.049 6.84 342.761 6.664C342.489 6.472 342.153 6.2 341.753 5.848C341.433 5.56 341.177 5.352 340.985 5.224C340.793 5.096 340.593 5.032 340.385 5.032C339.649 5.032 339.057 5.488 338.609 6.4C338.577 6.464 338.545 6.552 338.513 6.664C338.497 6.76 338.465 6.84 338.417 6.904C338.385 6.952 338.337 6.976 338.273 6.976C338.161 6.976 338.049 6.936 337.937 6.856C337.841 6.76 337.793 6.648 337.793 6.52C337.793 6.2 337.897 5.872 338.105 5.536C338.393 5.072 338.753 4.696 339.185 4.408C339.617 4.12 340.073 3.976 340.553 3.976C340.841 3.976 341.097 4.056 341.321 4.216C341.545 4.36 341.833 4.6 342.185 4.936C342.521 5.272 342.809 5.528 343.049 5.704C343.289 5.864 343.561 5.944 343.865 5.944C344.137 5.944 344.337 5.864 344.465 5.704C344.593 5.528 344.689 5.344 344.753 5.152C344.833 4.96 344.881 4.832 344.897 4.768C345.057 4.384 345.225 4.192 345.401 4.192C345.513 4.192 345.617 4.216 345.713 4.264C345.809 4.296 345.857 4.344 345.857 4.408C345.857 4.792 345.753 5.184 345.545 5.584C345.353 5.968 345.089 6.288 344.753 6.544C344.433 6.8 344.097 6.928 343.745 6.928ZM356.938 19.408C356.618 19.408 356.322 19.072 356.05 18.4C355.794 17.728 355.634 17.032 355.57 16.312C355.506 15.624 355.458 14.232 355.426 12.136C355.41 11.8 355.402 11.464 355.402 11.128C355.402 10.776 355.394 10.48 355.378 10.24C354.914 11.344 354.282 12.6 353.482 14.008C352.682 15.416 351.874 16.624 351.058 17.632C350.258 18.64 349.602 19.144 349.09 19.144C348.562 19.144 348.21 18.864 348.034 18.304C347.874 17.744 347.794 16.856 347.794 15.64C347.794 14.504 347.938 13.216 348.226 11.776C348.53 10.336 348.874 9.24 349.258 8.488C349.418 8.152 349.554 7.928 349.666 7.816C349.778 7.688 349.906 7.624 350.05 7.624C350.45 7.624 350.65 7.704 350.65 7.864C350.65 7.944 350.57 8.128 350.41 8.416C349.978 9.216 349.602 10.176 349.282 11.296C348.962 12.416 348.802 13.92 348.802 15.808C348.802 17.072 348.978 17.704 349.33 17.704C349.746 17.704 350.306 17.248 351.01 16.336C351.73 15.408 352.442 14.304 353.146 13.024C353.85 11.744 354.386 10.632 354.754 9.688C354.882 9.368 355.026 8.872 355.186 8.2C355.234 7.928 355.282 7.736 355.33 7.624C355.378 7.496 355.434 7.432 355.498 7.432C355.674 7.432 355.866 7.504 356.074 7.648C356.282 7.792 356.386 7.944 356.386 8.104C356.386 8.872 356.41 10.192 356.458 12.064C356.522 13.92 356.594 15.208 356.674 15.928C356.738 16.552 356.85 17.04 357.01 17.392C357.186 17.744 357.354 18.024 357.514 18.232C357.674 18.424 357.754 18.544 357.754 18.592C357.754 18.848 357.682 19.048 357.538 19.192C357.394 19.336 357.194 19.408 356.938 19.408ZM368.555 2.584C368.555 2.904 368.539 3.536 368.507 4.48C368.475 5.408 368.459 6.344 368.459 7.288C368.459 9.112 368.499 10.976 368.579 12.88C368.659 14.768 368.723 16.008 368.771 16.6C368.771 16.696 368.779 16.8 368.795 16.912C368.811 17.024 368.827 17.128 368.843 17.224C368.907 17.672 368.939 17.944 368.939 18.04C368.939 18.2 368.819 18.352 368.579 18.496C368.355 18.64 368.179 18.712 368.051 18.712C367.875 18.712 367.755 18.648 367.691 18.52C367.643 18.376 367.619 18.184 367.619 17.944C367.619 17.064 367.643 16.144 367.691 15.184L367.715 13.84C367.715 13.392 367.707 12.808 367.691 12.088C367.675 11.352 367.651 10.736 367.619 10.24C366.803 12.864 365.875 15.04 364.835 16.768C363.811 18.48 362.699 19.336 361.499 19.336C360.955 19.336 360.491 19.08 360.107 18.568C359.739 18.056 359.555 17.32 359.555 16.36C359.555 15.096 359.979 13.72 360.827 12.232C361.691 10.744 362.667 9.464 363.755 8.392C364.859 7.32 365.675 6.784 366.203 6.784C366.715 6.784 366.971 6.952 366.971 7.288C366.971 7.512 366.891 7.776 366.731 8.08C366.587 8.368 366.419 8.632 366.227 8.872C366.051 9.112 365.947 9.232 365.915 9.232C365.883 9.232 365.843 9.224 365.795 9.208C365.763 9.176 365.747 9.144 365.747 9.112C365.747 9.032 365.787 8.896 365.867 8.704C365.947 8.512 365.987 8.384 365.987 8.32C365.987 8.24 365.979 8.184 365.963 8.152C365.947 8.12 365.899 8.104 365.819 8.104C365.483 8.104 364.875 8.568 363.995 9.496C363.131 10.408 362.355 11.496 361.667 12.76C360.979 14.024 360.635 15.2 360.635 16.288C360.635 16.672 360.715 17.032 360.875 17.368C361.035 17.704 361.299 17.872 361.667 17.872C362.835 17.872 363.915 16.888 364.907 14.92C365.915 12.936 366.787 10.688 367.523 8.176L367.475 6.16C367.427 4.384 367.403 3.44 367.403 3.328C367.403 2.368 367.443 1.68 367.523 1.264C367.555 1.104 367.587 0.992 367.619 0.927999C367.667 0.863999 367.755 0.831999 367.883 0.831999C368.043 0.831999 368.203 0.887999 368.363 0.999999C368.523 1.096 368.603 1.232 368.603 1.408L368.555 2.584ZM379.01 19.864C378.85 19.864 378.714 19.824 378.602 19.744C378.49 19.68 378.434 19.584 378.434 19.456C378.434 18.8 378.482 17.784 378.578 16.408C378.674 14.936 378.722 13.712 378.722 12.736C378.722 11.792 378.69 11.024 378.626 10.432C378.578 9.824 378.45 9.52 378.242 9.52C377.698 9.52 377.098 10.2 376.442 11.56C375.802 12.904 375.066 14.68 374.234 16.888L373.874 17.848C373.81 18.008 373.698 18.136 373.538 18.232C373.394 18.328 373.242 18.376 373.082 18.376C372.89 18.376 372.762 18.36 372.698 18.328C372.634 18.296 372.594 18.2 372.578 18.04L372.386 16.072L372.026 12.616C371.914 11.24 371.778 10.04 371.618 9.016C371.57 8.776 371.546 8.592 371.546 8.464C371.546 8.224 371.65 8.032 371.858 7.888C372.066 7.728 372.306 7.648 372.578 7.648C372.738 7.648 372.85 8.032 372.914 8.8C372.994 9.568 373.074 10.808 373.154 12.52L373.25 13.792C373.378 15.408 373.45 16.432 373.466 16.864C373.514 16.768 373.554 16.664 373.586 16.552C373.634 16.424 373.69 16.288 373.754 16.144C374.618 13.904 375.426 12.04 376.178 10.552C376.946 9.048 377.682 8.296 378.386 8.296C378.882 8.296 379.218 8.72 379.394 9.568C379.586 10.4 379.706 11.472 379.754 12.784C379.802 14.24 379.826 16.368 379.826 19.168C379.826 19.36 379.746 19.52 379.586 19.648C379.426 19.792 379.234 19.864 379.01 19.864ZM392.065 19.408C391.745 19.408 391.449 19.072 391.177 18.4C390.921 17.728 390.761 17.032 390.697 16.312C390.633 15.624 390.585 14.232 390.553 12.136C390.537 11.8 390.529 11.464 390.529 11.128C390.529 10.776 390.521 10.48 390.505 10.24C390.041 11.344 389.409 12.6 388.609 14.008C387.809 15.416 387.001 16.624 386.185 17.632C385.385 18.64 384.729 19.144 384.217 19.144C383.689 19.144 383.337 18.864 383.161 18.304C383.001 17.744 382.921 16.856 382.921 15.64C382.921 14.504 383.065 13.216 383.353 11.776C383.657 10.336 384.001 9.24 384.385 8.488C384.545 8.152 384.681 7.928 384.793 7.816C384.905 7.688 385.033 7.624 385.177 7.624C385.577 7.624 385.777 7.704 385.777 7.864C385.777 7.944 385.697 8.128 385.537 8.416C385.105 9.216 384.729 10.176 384.409 11.296C384.089 12.416 383.929 13.92 383.929 15.808C383.929 17.072 384.105 17.704 384.457 17.704C384.873 17.704 385.433 17.248 386.137 16.336C386.857 15.408 387.569 14.304 388.273 13.024C388.977 11.744 389.513 10.632 389.881 9.688C390.009 9.368 390.153 8.872 390.313 8.2C390.361 7.928 390.409 7.736 390.457 7.624C390.505 7.496 390.561 7.432 390.625 7.432C390.801 7.432 390.993 7.504 391.201 7.648C391.409 7.792 391.513 7.944 391.513 8.104C391.513 8.872 391.537 10.192 391.585 12.064C391.649 13.92 391.721 15.208 391.801 15.928C391.865 16.552 391.977 17.04 392.137 17.392C392.313 17.744 392.481 18.024 392.641 18.232C392.801 18.424 392.881 18.544 392.881 18.592C392.881 18.848 392.809 19.048 392.665 19.192C392.521 19.336 392.321 19.408 392.065 19.408ZM403.681 2.584C403.681 2.904 403.665 3.536 403.633 4.48C403.601 5.408 403.585 6.344 403.585 7.288C403.585 9.112 403.625 10.976 403.705 12.88C403.785 14.768 403.849 16.008 403.897 16.6C403.897 16.696 403.905 16.8 403.921 16.912C403.937 17.024 403.953 17.128 403.969 17.224C404.033 17.672 404.065 17.944 404.065 18.04C404.065 18.2 403.945 18.352 403.705 18.496C403.481 18.64 403.305 18.712 403.177 18.712C403.001 18.712 402.881 18.648 402.817 18.52C402.769 18.376 402.745 18.184 402.745 17.944C402.745 17.064 402.769 16.144 402.817 15.184L402.841 13.84C402.841 13.392 402.833 12.808 402.817 12.088C402.801 11.352 402.777 10.736 402.745 10.24C401.929 12.864 401.001 15.04 399.961 16.768C398.937 18.48 397.825 19.336 396.625 19.336C396.081 19.336 395.617 19.08 395.233 18.568C394.865 18.056 394.681 17.32 394.681 16.36C394.681 15.096 395.105 13.72 395.953 12.232C396.817 10.744 397.793 9.464 398.881 8.392C399.985 7.32 400.801 6.784 401.329 6.784C401.841 6.784 402.097 6.952 402.097 7.288C402.097 7.512 402.017 7.776 401.857 8.08C401.713 8.368 401.545 8.632 401.353 8.872C401.177 9.112 401.073 9.232 401.041 9.232C401.009 9.232 400.969 9.224 400.921 9.208C400.889 9.176 400.873 9.144 400.873 9.112C400.873 9.032 400.913 8.896 400.993 8.704C401.073 8.512 401.113 8.384 401.113 8.32C401.113 8.24 401.105 8.184 401.089 8.152C401.073 8.12 401.025 8.104 400.945 8.104C400.609 8.104 400.001 8.568 399.121 9.496C398.257 10.408 397.481 11.496 396.793 12.76C396.105 14.024 395.761 15.2 395.761 16.288C395.761 16.672 395.841 17.032 396.001 17.368C396.161 17.704 396.425 17.872 396.793 17.872C397.961 17.872 399.041 16.888 400.033 14.92C401.041 12.936 401.913 10.688 402.649 8.176L402.601 6.16C402.553 4.384 402.529 3.44 402.529 3.328C402.529 2.368 402.569 1.68 402.649 1.264C402.681 1.104 402.713 0.992 402.745 0.927999C402.793 0.863999 402.881 0.831999 403.009 0.831999C403.169 0.831999 403.329 0.887999 403.489 0.999999C403.649 1.096 403.729 1.232 403.729 1.408L403.681 2.584ZM416.611 19.168C415.539 19.168 414.747 18.872 414.235 18.28C413.723 17.688 413.467 16.952 413.467 16.072C413.467 15.304 413.603 14.352 413.875 13.216C414.163 12.08 414.563 11.064 415.075 10.168C415.107 10.104 415.235 9.872 415.459 9.472C415.699 9.056 415.963 8.744 416.251 8.536C416.539 8.312 416.843 8.2 417.163 8.2C417.307 8.2 417.435 8.24 417.547 8.32C417.675 8.384 417.739 8.472 417.739 8.584C417.739 8.616 417.691 8.696 417.595 8.824C417.515 8.936 417.451 9.024 417.403 9.088C416.859 9.744 416.419 10.392 416.083 11.032C415.635 11.848 415.283 12.656 415.027 13.456C414.787 14.256 414.667 15.128 414.667 16.072C414.667 17.336 415.435 17.968 416.971 17.968C417.691 17.968 418.355 17.76 418.963 17.344C419.587 16.928 420.083 16.424 420.451 15.832C420.819 15.224 421.003 14.672 421.003 14.176C421.003 13.616 420.819 13.128 420.451 12.712C420.083 12.296 419.579 11.856 418.939 11.392C418.523 11.088 418.219 10.84 418.027 10.648C417.835 10.456 417.739 10.296 417.739 10.168C417.739 9.976 417.875 9.824 418.147 9.712C418.419 9.584 418.739 9.52 419.107 9.52C419.315 9.52 419.451 9.536 419.515 9.568C419.579 9.584 419.611 9.624 419.611 9.688C419.611 9.72 419.579 9.776 419.515 9.856C419.467 9.92 419.443 9.976 419.443 10.024C419.443 10.072 419.603 10.232 419.923 10.504C420.563 11.032 421.099 11.568 421.531 12.112C421.963 12.656 422.179 13.296 422.179 14.032C422.179 14.656 421.947 15.376 421.483 16.192C421.019 17.008 420.363 17.712 419.515 18.304C418.667 18.88 417.699 19.168 416.611 19.168ZM425.676 18.88C425.484 18.88 425.3 18.656 425.124 18.208C424.964 17.744 424.884 17.048 424.884 16.12C424.9 14.312 424.924 12.128 424.956 9.568C425.004 7.008 425.044 5.08 425.076 3.784C425.092 3.32 425.172 2.888 425.316 2.488C425.476 2.088 425.748 1.888 426.132 1.888C426.26 1.888 426.34 1.96 426.372 2.104C426.42 2.232 426.444 2.488 426.444 2.872C426.444 2.888 426.436 2.944 426.42 3.04C426.42 3.12 426.42 3.272 426.42 3.496C426.132 7.704 425.988 11.808 425.988 15.808C425.988 16.32 426.1 16.864 426.324 17.44C426.564 18.016 426.684 18.32 426.684 18.352C426.684 18.512 426.58 18.64 426.372 18.736C426.164 18.832 425.932 18.88 425.676 18.88ZM438.641 13.24C438.641 13.528 438.425 14.16 437.993 15.136C437.577 16.112 436.937 17.016 436.073 17.848C435.225 18.68 434.177 19.096 432.929 19.096C431.905 19.096 431.049 18.776 430.361 18.136C429.673 17.496 429.329 16.512 429.329 15.184C429.329 13.936 429.617 12.704 430.193 11.488C430.769 10.256 431.521 9.256 432.449 8.488C433.377 7.704 434.337 7.312 435.329 7.312C435.921 7.312 436.417 7.448 436.817 7.72C437.233 7.976 437.441 8.352 437.441 8.848C437.441 9.408 437.121 9.952 436.481 10.48C435.857 11.008 435.041 11.472 434.033 11.872C433.025 12.272 431.985 12.56 430.913 12.736C430.721 13.472 430.625 14.192 430.625 14.896C430.625 15.824 430.841 16.544 431.273 17.056C431.721 17.568 432.353 17.824 433.169 17.824C434.401 17.824 435.401 17.384 436.169 16.504C436.937 15.624 437.577 14.632 438.089 13.528C438.121 13.464 438.177 13.344 438.257 13.168C438.337 12.976 438.409 12.88 438.473 12.88C438.585 12.88 438.641 13 438.641 13.24ZM435.041 8.296C434.433 8.296 433.849 8.496 433.289 8.896C432.729 9.296 432.257 9.776 431.873 10.336C431.505 10.896 431.265 11.392 431.153 11.824C431.889 11.744 432.665 11.536 433.481 11.2C434.297 10.864 434.977 10.496 435.521 10.096C436.081 9.696 436.361 9.368 436.361 9.112C436.361 8.856 436.225 8.656 435.953 8.512C435.697 8.368 435.393 8.296 435.041 8.296ZM455.222 19.456C454.934 19.456 454.79 19.312 454.79 19.024C454.79 15.792 454.686 13.32 454.478 11.608C454.27 9.88 453.91 9.016 453.398 9.016C452.534 9.016 451.27 12.032 449.606 18.064V18.088C449.606 18.28 449.542 18.448 449.414 18.592C449.286 18.72 449.118 18.784 448.91 18.784C448.622 18.784 448.478 18.64 448.478 18.352C448.478 17.712 448.51 16.72 448.574 15.376C448.638 13.872 448.67 12.688 448.67 11.824C448.67 10.624 448.63 9.776 448.55 9.28C448.486 8.768 448.334 8.512 448.094 8.512C447.55 8.512 446.862 9.512 446.03 11.512C445.198 13.496 444.326 15.84 443.414 18.544L443.198 19.168C443.134 19.328 443.038 19.464 442.91 19.576C442.798 19.688 442.67 19.744 442.526 19.744C442.334 19.744 442.206 19.728 442.142 19.696C442.078 19.664 442.038 19.568 442.022 19.408C441.942 18.624 441.878 17.576 441.83 16.264C441.798 15.928 441.766 15.376 441.734 14.608C441.574 11.904 441.43 10.08 441.302 9.136C441.174 8.176 441.11 7.64 441.11 7.528C441.11 7.4 441.174 7.248 441.302 7.072C441.43 6.896 441.55 6.808 441.662 6.808C441.918 6.808 442.126 6.992 442.286 7.36C442.366 7.536 442.454 8.24 442.55 9.472C442.646 10.704 442.726 12.232 442.79 14.056L442.91 17.728C443.79 15.008 444.702 12.544 445.646 10.336C446.59 8.112 447.454 7 448.238 7C448.766 7 449.126 7.384 449.318 8.152C449.51 8.92 449.606 10.032 449.606 11.488C449.606 12.256 449.59 13.36 449.558 14.8L449.534 15.904C450.19 13.616 450.838 11.696 451.478 10.144C452.134 8.592 452.79 7.816 453.446 7.816C455.094 7.816 455.918 11.464 455.918 18.76C455.918 18.952 455.854 19.112 455.726 19.24C455.598 19.384 455.43 19.456 455.222 19.456ZM468.23 13.24C468.23 13.528 468.014 14.16 467.582 15.136C467.166 16.112 466.526 17.016 465.662 17.848C464.814 18.68 463.766 19.096 462.518 19.096C461.494 19.096 460.638 18.776 459.95 18.136C459.262 17.496 458.918 16.512 458.918 15.184C458.918 13.936 459.206 12.704 459.782 11.488C460.358 10.256 461.11 9.256 462.038 8.488C462.966 7.704 463.926 7.312 464.918 7.312C465.51 7.312 466.006 7.448 466.406 7.72C466.822 7.976 467.03 8.352 467.03 8.848C467.03 9.408 466.71 9.952 466.07 10.48C465.446 11.008 464.63 11.472 463.622 11.872C462.614 12.272 461.574 12.56 460.502 12.736C460.31 13.472 460.214 14.192 460.214 14.896C460.214 15.824 460.43 16.544 460.862 17.056C461.31 17.568 461.942 17.824 462.758 17.824C463.99 17.824 464.99 17.384 465.758 16.504C466.526 15.624 467.166 14.632 467.678 13.528C467.71 13.464 467.766 13.344 467.846 13.168C467.926 12.976 467.998 12.88 468.062 12.88C468.174 12.88 468.23 13 468.23 13.24ZM464.63 8.296C464.022 8.296 463.438 8.496 462.878 8.896C462.318 9.296 461.846 9.776 461.462 10.336C461.094 10.896 460.854 11.392 460.742 11.824C461.478 11.744 462.254 11.536 463.07 11.2C463.886 10.864 464.566 10.496 465.11 10.096C465.67 9.696 465.95 9.368 465.95 9.112C465.95 8.856 465.814 8.656 465.542 8.512C465.286 8.368 464.982 8.296 464.63 8.296Z" fill="#189CAB"/>
<g clip-path="url(#clip0_0_1)">
<path d="M13.0568 72.7557C15.1089 59.1 26.2247 47.9794 37.5304 47.9813C37.596 48.3299 37.7431 48.7695 37.6355 49.1075C35.8059 54.8526 38.2296 59.3073 42.163 63.2513C45.1905 66.3648 48.688 68.9041 52.8706 70.1933C54.0679 70.5249 55.2652 70.8565 56.5648 70.9359C61.325 71.313 63.8322 68.71 63.6008 63.9586C63.4483 60.7624 62.046 58.0928 60.1082 55.6488C56.8023 51.3986 52.4751 48.2057 47.3918 46.0001C46.3731 45.5933 45.3543 45.1865 43.9128 44.5816C48.8564 39.1129 55.541 37.885 61.9367 35.6919C60.8103 35.6231 59.6944 35.3826 58.5575 35.4854C52.6737 36.4178 47.1707 38.2347 42.7495 42.2711C41.4631 43.3983 40.2843 44.1876 38.3781 44.0711C31.0081 43.7068 24.8304 46.6022 19.6479 51.7118C15.7624 55.5225 12.7932 59.9921 10.7457 65.0348C10.2338 66.2955 9.72188 67.5562 8.81622 69.568C6.44765 65.6335 4.3942 62.235 2.34075 58.8365C2.07557 58.9064 1.80515 59.0621 1.53997 59.1321C1.41137 59.8133 1.09899 60.6555 1.32221 61.272C2.35691 64.2637 3.39162 67.2555 4.60485 70.1719C5.74718 72.8257 7.06804 75.4042 8.21037 78.058C9.35794 80.626 10.7075 81.3114 12.4796 79.3525C15.5539 76.009 18.2974 72.3869 21.1274 68.7701C21.5055 68.2764 21.2166 67.3113 21.1771 66.5337C20.3002 66.6524 19.1791 66.4977 18.6278 66.9808C16.6928 68.7574 15.0993 70.6411 13.0568 72.7557ZM41.0933 48.0268C49.4952 50.0046 55.8389 54.3543 59.6282 62.0793C60.395 63.7627 60.9623 65.8645 59.324 67.0564C58.2318 67.8509 56.1419 67.8955 54.6794 67.6338C49.1 66.4315 44.9566 63.0775 41.5745 58.6504C39.2454 55.4935 38.6649 52.185 41.0933 48.0268Z" fill="#189CAB"/>
</g>
<defs>
<clipPath id="clip0_0_1">
<rect width="62.5869" height="48.1438" fill="white" transform="matrix(-0.998138 -0.0610034 -0.0610034 0.998138 65.4073 35.818)"/>
</clipPath>
</defs>
</svg>
