<svg width="297" height="28" viewBox="0 0 297 28" fill="none" xmlns="http://www.w3.org/2000/svg">
<path d="M17.92 7.496C17.864 7.79467 17.4253 8 16.604 8.112C15.7827 8.20533 14.4947 8.308 12.74 8.42L12.18 12.788C12.7213 12.7133 13.2347 12.648 13.72 12.592C14.2053 12.536 14.6627 12.4707 15.092 12.396C15.3347 12.3773 15.5587 12.3493 15.764 12.312C15.9693 12.2747 16.1373 12.256 16.268 12.256C16.492 12.256 16.604 12.4053 16.604 12.704C16.604 12.704 16.5853 12.7973 16.548 12.984C16.3987 13.6373 15.26 14.0293 13.132 14.16C12.908 14.1787 12.7027 14.1973 12.516 14.216C12.3293 14.216 12.1613 14.216 12.012 14.216L11.984 14.524C11.8907 15.476 11.7973 16.316 11.704 17.044C11.6107 17.772 11.5173 18.3973 11.424 18.92L11.34 19.508C11.3213 19.7133 11.228 19.8907 11.06 20.04C10.9107 20.1893 10.7333 20.264 10.528 20.264C10.2293 20.264 10.08 19.8253 10.08 18.948C10.08 18.7613 10.0893 18.5187 10.108 18.22C10.1267 17.9213 10.1547 17.5667 10.192 17.156C10.248 16.764 10.2853 16.4467 10.304 16.204C10.3413 15.9427 10.3693 15.7187 10.388 15.532C10.4067 15.3453 10.4253 15.1587 10.444 14.972C10.4813 14.7853 10.5187 14.5613 10.556 14.3L5.908 14.496C5.684 15.6347 5.49733 16.6987 5.348 17.688C5.21733 18.6587 5.13333 19.564 5.096 20.404C5.07733 20.9453 5.04933 21.2627 5.012 21.356C4.97467 21.5613 4.872 21.7293 4.704 21.86C4.536 21.9907 4.34 22.056 4.116 22.056C3.76133 22.056 3.584 21.4867 3.584 20.348C3.584 20.0493 3.59333 19.732 3.612 19.396C3.64933 19.06 3.68667 18.7053 3.724 18.332L4.396 14.608L2.324 14.832C2.19333 14.8507 2.044 14.8693 1.876 14.888C1.708 14.9067 1.52133 14.916 1.316 14.916C0.868 14.916 0.644 14.748 0.644 14.412L0.672 14.132C0.746667 13.8147 0.952 13.5907 1.288 13.46C1.624 13.3107 1.96 13.2267 2.296 13.208C2.688 13.1893 3.08 13.18 3.472 13.18C3.88267 13.1613 4.30267 13.152 4.732 13.152C4.97467 12.1813 5.17067 11.3507 5.32 10.66C5.488 9.95067 5.61867 9.372 5.712 8.924L4.508 9.036C4.004 9.092 3.64933 9.12 3.444 9.12C2.79067 9.12 2.464 8.924 2.464 8.532C2.464 8.42 2.47333 8.35467 2.492 8.336C2.52933 8.168 2.61333 8.028 2.744 7.916C2.87467 7.804 3.03333 7.71067 3.22 7.636C3.40667 7.56133 3.612 7.50533 3.836 7.468C4.06 7.43067 4.284 7.412 4.508 7.412L6.02 7.356C6.20667 6.21733 6.36533 5.29333 6.496 4.584C6.62667 3.87467 6.73867 3.31467 6.832 2.904C6.92533 2.47467 7 2.15733 7.056 1.952C7.112 1.728 7.168 1.532 7.224 1.364C7.28 1.196 7.37333 1.07467 7.504 0.999998C7.65333 0.906665 7.812 0.859998 7.98 0.859998C8.35333 0.859998 8.54 1.20533 8.54 1.896C8.54 2.04533 8.52133 2.22267 8.484 2.428C8.46533 2.61467 8.43733 2.83867 8.4 3.1L7.448 7.328C8.15733 7.30933 8.85733 7.3 9.548 7.3C10.2387 7.28133 10.8827 7.25333 11.48 7.216L11.732 3.828C11.7693 3.41733 11.816 3.02533 11.872 2.652C11.9467 2.26 12.0307 1.87733 12.124 1.504C12.1613 1.336 12.2453 1.20533 12.376 1.112C12.5253 0.999999 12.684 0.943999 12.852 0.943999C13.2813 0.943999 13.496 1.40133 13.496 2.316C13.496 2.44667 13.4867 2.57733 13.468 2.708C13.468 2.83867 13.4587 2.97867 13.44 3.128C13.384 3.78133 13.216 5.116 12.936 7.132L17.64 6.768C17.8453 6.768 17.948 6.91733 17.948 7.216C17.948 7.34667 17.9387 7.44 17.92 7.496ZM11.368 8.504L7.14 8.756L6.188 13.124C6.58 13.124 6.95333 13.1147 7.308 13.096C7.66267 13.0773 8.01733 13.068 8.372 13.068C8.72667 13.0493 9.1 13.0307 9.492 13.012C9.884 12.9747 10.3133 12.9373 10.78 12.9L11.368 8.504ZM33.3592 14.02C33.2285 14.132 32.9578 14.2347 32.5472 14.328C32.1365 14.4027 31.8565 14.4493 31.7072 14.468C31.8565 15.1773 31.9312 15.5227 31.9312 15.504C32.0618 15.9707 32.2018 16.6147 32.3512 17.436C32.6872 19.3213 33.0325 20.9267 33.3872 22.252C33.4805 22.6813 33.5272 22.9333 33.5272 23.008C33.5272 23.1947 33.4525 23.3533 33.3032 23.484C33.1538 23.6147 32.9765 23.68 32.7712 23.68C32.5845 23.68 32.4165 23.5773 32.2672 23.372C32.1178 23.1853 32.0152 23.0173 31.9592 22.868C31.7912 22.2333 31.6325 21.524 31.4832 20.74C31.3525 19.956 31.1938 19.0133 31.0072 17.912C30.9325 17.4267 30.8112 16.8293 30.6432 16.12C30.4752 15.392 30.3632 14.916 30.3072 14.692C29.2058 14.8413 27.3112 15.14 24.6232 15.588L22.9992 15.868L22.4112 17.52L21.6272 19.76C20.9738 21.7947 20.5072 23.3627 20.2272 24.464C20.1712 24.7253 20.0592 24.94 19.8912 25.108C19.7232 25.2947 19.5178 25.388 19.2752 25.388C19.0698 25.388 18.8925 25.332 18.7432 25.22C18.6125 25.108 18.5472 24.9493 18.5472 24.744C18.5472 24.5387 18.6592 24.1 18.8832 23.428C19.1072 22.7747 19.2378 22.3827 19.2752 22.252C19.3498 22.0653 19.4992 21.636 19.7232 20.964C19.9658 20.236 20.2738 19.3587 20.6472 18.332C21.0392 17.2867 21.3005 16.596 21.4312 16.26C20.4792 16.484 19.7698 16.6613 19.3032 16.792C18.5938 16.9787 18.1552 17.072 17.9872 17.072C17.7818 17.072 17.6232 16.9973 17.5112 16.848C17.4178 16.68 17.3712 16.5027 17.3712 16.316C17.3712 16.092 17.4272 15.9427 17.5392 15.868C17.6512 15.7747 17.8378 15.6907 18.0992 15.616C18.8085 15.448 19.5552 15.28 20.3392 15.112C21.1418 14.944 21.6925 14.832 21.9912 14.776C22.1778 14.2347 22.3178 13.7773 22.4112 13.404C22.4858 13.1613 22.5792 12.8627 22.6912 12.508C22.8218 12.1347 22.9618 11.6773 23.1112 11.136L23.5312 9.708C24.2405 7.20667 24.6512 5.77867 24.7632 5.424C24.8565 5.16267 24.9405 4.95733 25.0152 4.808C25.1085 4.65867 25.2298 4.584 25.3792 4.584C25.7525 4.584 26.0885 4.64 26.3872 4.752C26.4245 4.71467 26.4805 4.64 26.5552 4.528C26.6485 4.39733 26.7418 4.31333 26.8352 4.276C26.9472 4.22 27.0872 4.192 27.2552 4.192C27.5912 4.192 27.9738 4.57467 28.4032 5.34C28.8512 6.10533 29.2805 7.01067 29.6912 8.056C29.9338 8.672 30.2418 9.596 30.6152 10.828C30.9885 12.0413 31.2312 12.844 31.3432 13.236C31.6232 13.1987 31.8565 13.152 32.0432 13.096C32.2485 13.0213 32.3792 12.9747 32.4352 12.956C32.5285 12.9187 32.6312 12.8533 32.7432 12.76C32.8552 12.6667 32.9578 12.6013 33.0512 12.564C33.1445 12.508 33.2472 12.508 33.3592 12.564C33.6018 12.676 33.7232 12.9093 33.7232 13.264C33.7232 13.3947 33.6858 13.5347 33.6112 13.684C33.5552 13.8333 33.4712 13.9453 33.3592 14.02ZM28.6272 8.728C28.3658 8.03733 28.0298 7.328 27.6192 6.6C27.2085 5.872 26.8632 5.41467 26.5832 5.228L26.2752 5.956C25.9205 6.66533 25.6498 7.30933 25.4632 7.888C25.0152 9.232 24.3058 11.4533 23.3352 14.552L26.6112 13.992L29.2992 13.572L30.0552 13.46C29.9618 13.124 29.7658 12.424 29.4672 11.36C29.1685 10.2773 28.8885 9.4 28.6272 8.728ZM50.2731 22.14C50.1425 22.14 49.2651 21.1413 47.6411 19.144C46.0358 17.128 44.7105 15.4107 43.6651 13.992C43.5158 13.7867 43.0398 13.1053 42.2371 11.948C41.0611 10.2307 40.3331 9.19467 40.0531 8.84L39.9971 10.996L39.9691 13.096C39.9691 14.4213 39.9505 15.8587 39.9131 17.408C39.8945 18.9573 39.8665 20.1893 39.8291 21.104C39.8105 21.328 39.7078 21.5333 39.5211 21.72C39.3531 21.9067 39.1758 22 38.9891 22C38.7838 22 38.6345 21.944 38.5411 21.832C38.4665 21.7013 38.4291 21.4587 38.4291 21.104C38.4291 20.88 38.4665 20.1893 38.5411 19.032C38.7091 16.8853 38.7931 15.084 38.7931 13.628C38.7931 12.4707 38.8118 11.3787 38.8491 10.352C38.8865 9.30667 38.9051 8.66267 38.9051 8.42L38.9331 7.608V7.524C38.9331 7.31867 38.9611 7.16 39.0171 7.048C39.0918 6.91733 39.2318 6.852 39.4371 6.852H39.5771C39.7825 6.852 40.1838 7.22533 40.7811 7.972C41.3971 8.7 42.1718 9.69867 43.1051 10.968C43.3105 11.2293 43.5065 11.4907 43.6931 11.752C43.8798 11.9947 44.0571 12.228 44.2251 12.452C45.2891 13.8147 45.8491 14.5333 45.9051 14.608C48.5558 17.9867 50.0025 19.9093 50.2451 20.376C50.2078 20.2267 50.1425 19.8813 50.0491 19.34C49.9558 18.7987 49.8625 18.0893 49.7691 17.212C49.6945 16.3347 49.6571 15.4293 49.6571 14.496C49.6571 12.8347 49.4985 10.6413 49.1811 7.916C49.0878 7.02 49.0411 6.46933 49.0411 6.264C49.0411 5.55467 49.4425 5.2 50.2451 5.2C50.4318 5.2 50.5718 5.396 50.6651 5.788C50.7585 6.16133 50.8238 6.964 50.8611 8.196C50.8985 9.428 50.9171 11.3973 50.9171 14.104C50.9171 14.9627 50.9451 15.8027 51.0011 16.624C51.0758 17.4453 51.1411 18.1733 51.1971 18.808C51.2905 19.6853 51.3371 20.348 51.3371 20.796L51.3651 21.804C51.3651 22.028 51.0011 22.14 50.2731 22.14ZM69.8852 22.14C69.7545 22.14 68.8772 21.1413 67.2532 19.144C65.6478 17.128 64.3225 15.4107 63.2772 13.992C63.1278 13.7867 62.6518 13.1053 61.8492 11.948C60.6732 10.2307 59.9452 9.19467 59.6652 8.84L59.6092 10.996L59.5812 13.096C59.5812 14.4213 59.5625 15.8587 59.5252 17.408C59.5065 18.9573 59.4785 20.1893 59.4412 21.104C59.4225 21.328 59.3198 21.5333 59.1332 21.72C58.9652 21.9067 58.7878 22 58.6012 22C58.3958 22 58.2465 21.944 58.1532 21.832C58.0785 21.7013 58.0412 21.4587 58.0412 21.104C58.0412 20.88 58.0785 20.1893 58.1532 19.032C58.3212 16.8853 58.4052 15.084 58.4052 13.628C58.4052 12.4707 58.4238 11.3787 58.4612 10.352C58.4985 9.30667 58.5172 8.66267 58.5172 8.42L58.5452 7.608V7.524C58.5452 7.31867 58.5732 7.16 58.6292 7.048C58.7038 6.91733 58.8438 6.852 59.0492 6.852H59.1892C59.3945 6.852 59.7958 7.22533 60.3932 7.972C61.0092 8.7 61.7838 9.69867 62.7172 10.968C62.9225 11.2293 63.1185 11.4907 63.3052 11.752C63.4918 11.9947 63.6692 12.228 63.8372 12.452C64.9012 13.8147 65.4612 14.5333 65.5172 14.608C68.1678 17.9867 69.6145 19.9093 69.8572 20.376C69.8198 20.2267 69.7545 19.8813 69.6612 19.34C69.5678 18.7987 69.4745 18.0893 69.3812 17.212C69.3065 16.3347 69.2692 15.4293 69.2692 14.496C69.2692 12.8347 69.1105 10.6413 68.7932 7.916C68.6998 7.02 68.6532 6.46933 68.6532 6.264C68.6532 5.55467 69.0545 5.2 69.8572 5.2C70.0438 5.2 70.1838 5.396 70.2772 5.788C70.3705 6.16133 70.4358 6.964 70.4732 8.196C70.5105 9.428 70.5292 11.3973 70.5292 14.104C70.5292 14.9627 70.5572 15.8027 70.6132 16.624C70.6878 17.4453 70.7532 18.1733 70.8092 18.808C70.9025 19.6853 70.9492 20.348 70.9492 20.796L70.9772 21.804C70.9772 22.028 70.6132 22.14 69.8852 22.14ZM89.6932 4.724C89.1892 5.004 88.3959 5.30267 87.3132 5.62C86.2492 5.93733 85.3719 6.16133 84.6812 6.292C83.5985 6.49733 82.5065 6.66533 81.4052 6.796C80.3225 6.908 79.6225 6.97333 79.3052 6.992C79.3239 8.07467 79.3519 9.19467 79.3892 10.352C79.4265 11.4907 79.4545 12.2747 79.4732 12.704C80.2012 12.6107 81.2932 12.4333 82.7492 12.172L83.8132 12.004C84.9892 11.7987 85.8945 11.4253 86.5292 10.884C86.8652 10.6227 87.1079 10.492 87.2572 10.492C87.3879 10.492 87.4905 10.5667 87.5652 10.716C87.6585 10.8467 87.7052 10.9867 87.7052 11.136C87.7052 11.472 87.3225 11.8453 86.5572 12.256C85.8105 12.648 84.9799 12.9373 84.0652 13.124C83.2999 13.292 82.4412 13.4507 81.4892 13.6C80.5372 13.7493 79.9119 13.8427 79.6132 13.88C79.7252 17.072 80.0519 19.4427 80.5932 20.992C81.1345 21.1787 81.6665 21.3187 82.1892 21.412C82.7119 21.4867 83.3839 21.524 84.2052 21.524C85.0265 21.524 85.8105 21.4213 86.5572 21.216C87.3039 20.992 87.9012 20.7213 88.3492 20.404C88.8159 20.0867 89.0492 19.788 89.0492 19.508C89.0492 19.3587 89.0212 19.2187 88.9652 19.088C88.9092 18.9387 88.8345 18.7893 88.7412 18.64C88.7039 18.584 88.6385 18.5 88.5452 18.388C88.4705 18.2573 88.4332 18.1547 88.4332 18.08C88.4332 17.8933 88.6385 17.8 89.0492 17.8C89.3479 17.8 89.5999 17.9307 89.8052 18.192C90.0292 18.4347 90.1412 18.7053 90.1412 19.004C90.1412 19.6013 89.8705 20.1893 89.3292 20.768C88.8065 21.3467 88.0785 21.8133 87.1452 22.168C86.2305 22.5413 85.2132 22.728 84.0932 22.728C82.9545 22.728 82.0212 22.6627 81.2932 22.532C80.5652 22.42 80.0145 22.1867 79.6412 21.832C79.1932 21.328 78.8759 20.4507 78.6892 19.2C78.5212 17.9493 78.3719 16.2787 78.2412 14.188C77.8865 14.2813 77.4852 14.3653 77.0372 14.44C76.6079 14.496 76.2812 14.524 76.0572 14.524C75.8332 14.524 75.6465 14.4587 75.4972 14.328C75.3665 14.1787 75.3012 14.0013 75.3012 13.796C75.3012 13.6653 75.3199 13.5533 75.3572 13.46C75.4132 13.3667 75.4879 13.3107 75.5812 13.292C76.1972 13.2173 76.6452 13.1707 76.9252 13.152L78.1292 13.012C78.0545 10.604 77.9799 8.644 77.9052 7.132C77.6252 7.132 77.4012 7.14133 77.2332 7.16L75.9452 7.188C75.7772 7.188 75.6465 7.14133 75.5532 7.048C75.4599 6.95467 75.4132 6.852 75.4132 6.74C75.4132 6.292 75.7119 5.99333 76.3092 5.844C76.5332 5.80667 76.8132 5.76933 77.1492 5.732C77.5039 5.676 77.7372 5.648 77.8492 5.648C78.2039 5.256 78.5959 5.06 79.0252 5.06C79.0999 5.06 79.1559 5.12533 79.1932 5.256C79.2492 5.368 79.2772 5.452 79.2772 5.508C80.5092 5.452 81.9745 5.312 83.6732 5.088C84.7932 4.93867 86.5199 4.584 88.8532 4.024L89.8892 3.8C90.0759 3.8 90.1692 3.912 90.1692 4.136C90.1692 4.36 90.0105 4.556 89.6932 4.724ZM109.568 5.592C109.512 5.592 109.316 5.54533 108.98 5.452C108.662 5.34 108.364 5.284 108.084 5.284C107.188 5.284 106.17 5.33067 105.032 5.424C103.893 5.51733 102.95 5.648 102.204 5.816C102.26 6.712 102.306 8.13067 102.344 10.072C102.4 11.9947 102.428 14.02 102.428 16.148C102.428 17.044 102.409 18.0427 102.372 19.144C102.353 20.2453 102.316 20.9267 102.26 21.188C102.222 21.3933 102.092 21.5613 101.868 21.692C101.662 21.8227 101.448 21.888 101.224 21.888C101.093 21.888 100.981 21.832 100.888 21.72C100.794 21.608 100.748 21.4773 100.748 21.328L100.776 20.348C100.888 18.892 100.944 17.1 100.944 14.972C100.944 13.4413 100.925 11.696 100.888 9.736C100.85 7.75733 100.813 6.53467 100.776 6.068C97.0422 6.47867 94.5502 6.86133 93.2995 7.216C93.0755 7.29067 92.8235 7.328 92.5435 7.328C92.2075 7.328 91.8808 7.20667 91.5635 6.964C91.2462 6.72133 91.0875 6.46 91.0875 6.18C91.0875 5.99333 91.1435 5.86267 91.2555 5.788C91.3675 5.69467 91.5075 5.648 91.6755 5.648C92.7395 5.592 93.6355 5.536 94.3635 5.48C96.0248 5.33067 98.1155 5.09733 100.636 4.78C100.636 4.20133 100.645 3.79067 100.664 3.548C100.701 3.30533 100.766 3.184 100.86 3.184C101.214 3.184 101.532 3.324 101.812 3.604C101.868 3.66 101.914 3.80933 101.952 4.052C101.989 4.276 102.008 4.42533 102.008 4.5C102.418 4.48133 103.09 4.388 104.024 4.22C106.04 3.90267 107.421 3.744 108.168 3.744C109.064 3.744 109.661 3.856 109.96 4.08C110.165 4.22933 110.268 4.5 110.268 4.892C110.268 5.04133 110.202 5.2 110.072 5.368C109.941 5.51733 109.773 5.592 109.568 5.592ZM127.154 14.02C127.023 14.132 126.752 14.2347 126.342 14.328C125.931 14.4027 125.651 14.4493 125.502 14.468C125.651 15.1773 125.726 15.5227 125.726 15.504C125.856 15.9707 125.996 16.6147 126.146 17.436C126.482 19.3213 126.827 20.9267 127.182 22.252C127.275 22.6813 127.322 22.9333 127.322 23.008C127.322 23.1947 127.247 23.3533 127.098 23.484C126.948 23.6147 126.771 23.68 126.566 23.68C126.379 23.68 126.211 23.5773 126.062 23.372C125.912 23.1853 125.81 23.0173 125.754 22.868C125.586 22.2333 125.427 21.524 125.278 20.74C125.147 19.956 124.988 19.0133 124.802 17.912C124.727 17.4267 124.606 16.8293 124.438 16.12C124.27 15.392 124.158 14.916 124.102 14.692C123 14.8413 121.106 15.14 118.418 15.588L116.794 15.868L116.206 17.52L115.422 19.76C114.768 21.7947 114.302 23.3627 114.022 24.464C113.966 24.7253 113.854 24.94 113.686 25.108C113.518 25.2947 113.312 25.388 113.07 25.388C112.864 25.388 112.687 25.332 112.538 25.22C112.407 25.108 112.342 24.9493 112.342 24.744C112.342 24.5387 112.454 24.1 112.678 23.428C112.902 22.7747 113.032 22.3827 113.07 22.252C113.144 22.0653 113.294 21.636 113.518 20.964C113.76 20.236 114.068 19.3587 114.442 18.332C114.834 17.2867 115.095 16.596 115.226 16.26C114.274 16.484 113.564 16.6613 113.098 16.792C112.388 16.9787 111.95 17.072 111.782 17.072C111.576 17.072 111.418 16.9973 111.306 16.848C111.212 16.68 111.166 16.5027 111.166 16.316C111.166 16.092 111.222 15.9427 111.334 15.868C111.446 15.7747 111.632 15.6907 111.894 15.616C112.603 15.448 113.35 15.28 114.134 15.112C114.936 14.944 115.487 14.832 115.786 14.776C115.972 14.2347 116.112 13.7773 116.206 13.404C116.28 13.1613 116.374 12.8627 116.486 12.508C116.616 12.1347 116.756 11.6773 116.906 11.136L117.326 9.708C118.035 7.20667 118.446 5.77867 118.558 5.424C118.651 5.16267 118.735 4.95733 118.81 4.808C118.903 4.65867 119.024 4.584 119.174 4.584C119.547 4.584 119.883 4.64 120.182 4.752C120.219 4.71467 120.275 4.64 120.35 4.528C120.443 4.39733 120.536 4.31333 120.63 4.276C120.742 4.22 120.882 4.192 121.05 4.192C121.386 4.192 121.768 4.57467 122.198 5.34C122.646 6.10533 123.075 7.01067 123.486 8.056C123.728 8.672 124.036 9.596 124.41 10.828C124.783 12.0413 125.026 12.844 125.138 13.236C125.418 13.1987 125.651 13.152 125.838 13.096C126.043 13.0213 126.174 12.9747 126.23 12.956C126.323 12.9187 126.426 12.8533 126.538 12.76C126.65 12.6667 126.752 12.6013 126.846 12.564C126.939 12.508 127.042 12.508 127.154 12.564C127.396 12.676 127.518 12.9093 127.518 13.264C127.518 13.3947 127.48 13.5347 127.406 13.684C127.35 13.8333 127.266 13.9453 127.154 14.02ZM122.422 8.728C122.16 8.03733 121.824 7.328 121.414 6.6C121.003 5.872 120.658 5.41467 120.378 5.228L120.07 5.956C119.715 6.66533 119.444 7.30933 119.258 7.888C118.81 9.232 118.1 11.4533 117.13 14.552L120.406 13.992L123.094 13.572L123.85 13.46C123.756 13.124 123.56 12.424 123.262 11.36C122.963 10.2773 122.683 9.4 122.422 8.728ZM149.5 21.188C149.276 21.188 149.098 21.1787 148.968 21.16C148.837 21.1227 148.744 21.0387 148.688 20.908C148.52 20.628 148.324 19.7973 148.1 18.416C147.876 17.0347 147.661 15.448 147.456 13.656C147.008 8.18667 146.662 5.396 146.42 5.284C146.214 5.732 145.897 6.58133 145.468 7.832C145.038 9.064 144.544 10.6787 143.984 12.676C143.368 14.8227 142.901 16.3067 142.584 17.128C142.266 17.9307 141.986 18.4253 141.744 18.612C141.594 18.7427 141.408 18.8733 141.184 19.004C140.978 19.116 140.801 19.172 140.652 19.172C140.465 19.172 140.344 19.1533 140.288 19.116C140.232 19.06 140.166 18.9107 140.092 18.668C140.017 18.388 139.84 17.52 139.56 16.064C139.28 14.5893 139.065 13.264 138.916 12.088L138.748 10.912C138.43 8.48533 138.216 7.132 138.104 6.852C137.749 7.16933 137.413 7.87867 137.096 8.98C136.778 10.0627 136.414 11.6027 136.004 13.6C135.612 15.1493 135.136 17.6693 134.576 21.16C134.557 21.3653 134.417 21.552 134.156 21.72C133.894 21.888 133.661 21.972 133.456 21.972C133.157 21.972 132.989 21.6827 132.952 21.104C132.933 20.5253 132.802 19.2747 132.56 17.352C132.336 15.4293 132.13 13.74 131.944 12.284C131.682 10.212 131.328 8.28933 130.88 6.516C130.749 5.956 130.684 5.63867 130.684 5.564C130.684 5.284 130.814 5.06 131.076 4.892C131.356 4.70533 131.654 4.612 131.972 4.612C132.121 4.612 132.28 5.19067 132.448 6.348C132.616 7.50533 132.793 8.96133 132.98 10.716L133.064 11.64C133.138 12.256 133.222 12.9 133.316 13.572C133.67 16.428 133.866 18.22 133.904 18.948C134.277 16.7827 134.697 14.608 135.164 12.424L135.416 11.192C135.826 9.21333 136.274 7.72 136.76 6.712C137.245 5.68533 137.87 5.172 138.636 5.172C138.878 5.172 139.149 5.80667 139.448 7.076C139.746 8.32667 139.98 9.792 140.148 11.472C140.278 12.6667 140.446 13.8333 140.652 14.972C140.857 16.1107 141.044 16.904 141.212 17.352C141.324 17.0347 141.548 16.3347 141.884 15.252C142.238 14.1693 142.565 13.1427 142.864 12.172C143.778 9.05467 144.749 6.264 145.776 3.8C145.962 3.408 146.14 3.128 146.308 2.96C146.494 2.77333 146.812 2.68 147.26 2.68C147.502 2.68 147.764 3.744 148.044 5.872C148.324 8 148.557 10.464 148.744 13.264C149.248 17.2213 149.705 19.3773 150.116 19.732C150.396 19.9747 150.536 20.236 150.536 20.516C150.536 20.6467 150.424 20.796 150.2 20.964C149.994 21.1133 149.761 21.188 149.5 21.188ZM166.821 5.312C166.056 5.46133 165.085 5.61067 163.909 5.76C162.733 5.89067 161.781 5.97467 161.053 6.012C160.997 6.81467 160.922 9.12933 160.829 12.956C160.736 16.7827 160.68 19.6107 160.661 21.44C161.669 21.4213 162.994 21.356 164.637 21.244C166.018 21.1693 166.793 21.132 166.961 21.132C167.297 21.132 167.596 21.2067 167.857 21.356C168.137 21.5053 168.277 21.7387 168.277 22.056C168.277 22.3173 168.23 22.504 168.137 22.616C168.062 22.728 167.885 22.784 167.605 22.784C167.493 22.784 167.185 22.756 166.681 22.7C166.308 22.6253 165.99 22.588 165.729 22.588C164.852 22.588 163.097 22.644 160.465 22.756C160.372 22.8867 160.26 22.98 160.129 23.036C160.017 23.1107 159.914 23.148 159.821 23.148C159.709 23.148 159.597 23.12 159.485 23.064C159.373 23.008 159.308 22.924 159.289 22.812L158.029 22.952C156.573 23.1387 155.49 23.232 154.781 23.232C154.165 23.232 153.698 23.1013 153.381 22.84C153.213 22.6907 153.129 22.42 153.129 22.028C153.129 21.916 153.185 21.776 153.297 21.608C153.428 21.44 153.558 21.356 153.689 21.356C153.726 21.356 153.866 21.412 154.109 21.524C154.37 21.6173 154.613 21.664 154.837 21.664C155.528 21.664 156.545 21.6267 157.889 21.552L159.177 21.468L159.345 17.352C159.364 16.9227 159.382 16.54 159.401 16.204C159.42 15.8493 159.429 15.5507 159.429 15.308L159.709 6.152C157.768 6.28267 156.844 6.348 156.937 6.348C155.033 6.49733 153.913 6.572 153.577 6.572C153.26 6.572 152.961 6.46933 152.681 6.264C152.401 6.05867 152.261 5.79733 152.261 5.48C152.261 5.256 152.317 5.07867 152.429 4.948C152.56 4.81733 152.728 4.752 152.933 4.752C153.082 4.752 153.232 4.76133 153.381 4.78C153.53 4.79867 153.68 4.81733 153.829 4.836C154.296 4.92933 154.744 4.976 155.173 4.976C155.584 4.976 156.368 4.948 157.525 4.892C158.682 4.81733 159.457 4.77067 159.849 4.752C159.868 4.50933 159.952 4.31333 160.101 4.164C160.25 3.996 160.446 3.912 160.689 3.912C160.801 3.912 160.894 3.98667 160.969 4.136C161.044 4.28533 161.081 4.45333 161.081 4.64C162.164 4.60267 164.114 4.36 166.933 3.912C167.157 3.87467 167.4 3.772 167.661 3.604C167.941 3.436 168.1 3.352 168.137 3.352C168.324 3.352 168.501 3.42667 168.669 3.576C168.837 3.72533 168.921 3.912 168.921 4.136C168.921 4.49067 168.744 4.74267 168.389 4.892C168.034 5.04133 167.512 5.18133 166.821 5.312ZM177.435 22.924C176.222 22.924 175.261 22.8213 174.551 22.616C173.842 22.4293 173.487 22.1587 173.487 21.804C173.487 21.6173 173.618 21.3093 173.879 20.88C174.159 20.432 174.374 20.208 174.523 20.208C174.747 20.208 174.859 20.2547 174.859 20.348C174.859 20.404 174.822 20.4693 174.747 20.544C174.691 20.6187 174.663 20.6933 174.663 20.768C174.663 20.824 174.775 20.908 174.999 21.02C175.242 21.132 175.606 21.2347 176.091 21.328C176.577 21.4213 177.165 21.468 177.855 21.468C178.957 21.468 179.918 21.2533 180.739 20.824C181.579 20.3947 182.223 19.8533 182.671 19.2C183.119 18.5467 183.343 17.912 183.343 17.296C183.343 16.4933 182.951 15.8027 182.167 15.224C181.402 14.6453 180.161 14.0947 178.443 13.572C176.782 13.0307 175.494 12.5827 174.579 12.228C173.683 11.8547 172.955 11.4067 172.395 10.884C171.835 10.3427 171.555 9.68933 171.555 8.924C171.555 7.89733 172.134 6.88933 173.291 5.9C174.449 4.892 175.877 4.08 177.575 3.464C179.274 2.82933 180.851 2.512 182.307 2.512C183.054 2.512 183.455 2.66133 183.511 2.96C183.567 3.25867 183.595 3.59467 183.595 3.968C183.595 4.248 183.493 4.388 183.287 4.388C183.194 4.388 183.082 4.36 182.951 4.304C182.839 4.22933 182.737 4.17333 182.643 4.136C182.531 4.09867 182.401 4.06133 182.251 4.024C182.102 3.98667 181.887 3.968 181.607 3.968C180.637 3.968 179.47 4.22 178.107 4.724C176.745 5.228 175.559 5.85333 174.551 6.6C173.562 7.34667 173.067 8.06533 173.067 8.756C173.067 9.316 173.291 9.80133 173.739 10.212C174.206 10.6227 174.822 10.9773 175.587 11.276C176.353 11.556 177.435 11.9107 178.835 12.34C180.889 12.9373 182.401 13.6093 183.371 14.356C184.361 15.1027 184.855 16.0173 184.855 17.1C184.855 18.0333 184.538 18.9573 183.903 19.872C183.287 20.768 182.41 21.496 181.271 22.056C180.151 22.6347 178.873 22.924 177.435 22.924ZM204.702 5.592C204.646 5.592 204.45 5.54533 204.114 5.452C203.797 5.34 203.498 5.284 203.218 5.284C202.322 5.284 201.305 5.33067 200.166 5.424C199.027 5.51733 198.085 5.648 197.338 5.816C197.394 6.712 197.441 8.13067 197.478 10.072C197.534 11.9947 197.562 14.02 197.562 16.148C197.562 17.044 197.543 18.0427 197.506 19.144C197.487 20.2453 197.45 20.9267 197.394 21.188C197.357 21.3933 197.226 21.5613 197.002 21.692C196.797 21.8227 196.582 21.888 196.358 21.888C196.227 21.888 196.115 21.832 196.022 21.72C195.929 21.608 195.882 21.4773 195.882 21.328L195.91 20.348C196.022 18.892 196.078 17.1 196.078 14.972C196.078 13.4413 196.059 11.696 196.022 9.736C195.985 7.75733 195.947 6.53467 195.91 6.068C192.177 6.47867 189.685 6.86133 188.434 7.216C188.21 7.29067 187.958 7.328 187.678 7.328C187.342 7.328 187.015 7.20667 186.698 6.964C186.381 6.72133 186.222 6.46 186.222 6.18C186.222 5.99333 186.278 5.86267 186.39 5.788C186.502 5.69467 186.642 5.648 186.81 5.648C187.874 5.592 188.77 5.536 189.498 5.48C191.159 5.33067 193.25 5.09733 195.77 4.78C195.77 4.20133 195.779 3.79067 195.798 3.548C195.835 3.30533 195.901 3.184 195.994 3.184C196.349 3.184 196.666 3.324 196.946 3.604C197.002 3.66 197.049 3.80933 197.086 4.052C197.123 4.276 197.142 4.42533 197.142 4.5C197.553 4.48133 198.225 4.388 199.158 4.22C201.174 3.90267 202.555 3.744 203.302 3.744C204.198 3.744 204.795 3.856 205.094 4.08C205.299 4.22933 205.402 4.5 205.402 4.892C205.402 5.04133 205.337 5.2 205.206 5.368C205.075 5.51733 204.907 5.592 204.702 5.592ZM222.288 14.02C222.157 14.132 221.887 14.2347 221.476 14.328C221.065 14.4027 220.785 14.4493 220.636 14.468C220.785 15.1773 220.86 15.5227 220.86 15.504C220.991 15.9707 221.131 16.6147 221.28 17.436C221.616 19.3213 221.961 20.9267 222.316 22.252C222.409 22.6813 222.456 22.9333 222.456 23.008C222.456 23.1947 222.381 23.3533 222.232 23.484C222.083 23.6147 221.905 23.68 221.7 23.68C221.513 23.68 221.345 23.5773 221.196 23.372C221.047 23.1853 220.944 23.0173 220.888 22.868C220.72 22.2333 220.561 21.524 220.412 20.74C220.281 19.956 220.123 19.0133 219.936 17.912C219.861 17.4267 219.74 16.8293 219.572 16.12C219.404 15.392 219.292 14.916 219.236 14.692C218.135 14.8413 216.24 15.14 213.552 15.588L211.928 15.868L211.34 17.52L210.556 19.76C209.903 21.7947 209.436 23.3627 209.156 24.464C209.1 24.7253 208.988 24.94 208.82 25.108C208.652 25.2947 208.447 25.388 208.204 25.388C207.999 25.388 207.821 25.332 207.672 25.22C207.541 25.108 207.476 24.9493 207.476 24.744C207.476 24.5387 207.588 24.1 207.812 23.428C208.036 22.7747 208.167 22.3827 208.204 22.252C208.279 22.0653 208.428 21.636 208.652 20.964C208.895 20.236 209.203 19.3587 209.576 18.332C209.968 17.2867 210.229 16.596 210.36 16.26C209.408 16.484 208.699 16.6613 208.232 16.792C207.523 16.9787 207.084 17.072 206.916 17.072C206.711 17.072 206.552 16.9973 206.44 16.848C206.347 16.68 206.3 16.5027 206.3 16.316C206.3 16.092 206.356 15.9427 206.468 15.868C206.58 15.7747 206.767 15.6907 207.028 15.616C207.737 15.448 208.484 15.28 209.268 15.112C210.071 14.944 210.621 14.832 210.92 14.776C211.107 14.2347 211.247 13.7773 211.34 13.404C211.415 13.1613 211.508 12.8627 211.62 12.508C211.751 12.1347 211.891 11.6773 212.04 11.136L212.46 9.708C213.169 7.20667 213.58 5.77867 213.692 5.424C213.785 5.16267 213.869 4.95733 213.944 4.808C214.037 4.65867 214.159 4.584 214.308 4.584C214.681 4.584 215.017 4.64 215.316 4.752C215.353 4.71467 215.409 4.64 215.484 4.528C215.577 4.39733 215.671 4.31333 215.764 4.276C215.876 4.22 216.016 4.192 216.184 4.192C216.52 4.192 216.903 4.57467 217.332 5.34C217.78 6.10533 218.209 7.01067 218.62 8.056C218.863 8.672 219.171 9.596 219.544 10.828C219.917 12.0413 220.16 12.844 220.272 13.236C220.552 13.1987 220.785 13.152 220.972 13.096C221.177 13.0213 221.308 12.9747 221.364 12.956C221.457 12.9187 221.56 12.8533 221.672 12.76C221.784 12.6667 221.887 12.6013 221.98 12.564C222.073 12.508 222.176 12.508 222.288 12.564C222.531 12.676 222.652 12.9093 222.652 13.264C222.652 13.3947 222.615 13.5347 222.54 13.684C222.484 13.8333 222.4 13.9453 222.288 14.02ZM217.556 8.728C217.295 8.03733 216.959 7.328 216.548 6.6C216.137 5.872 215.792 5.41467 215.512 5.228L215.204 5.956C214.849 6.66533 214.579 7.30933 214.392 7.888C213.944 9.232 213.235 11.4533 212.264 14.552L215.54 13.992L218.228 13.572L218.984 13.46C218.891 13.124 218.695 12.424 218.396 11.36C218.097 10.2773 217.817 9.4 217.556 8.728ZM237.97 20.768L233.154 21.132L229.822 21.412L228.086 21.552C227.937 21.552 227.797 21.4587 227.666 21.272C227.554 21.0853 227.498 20.908 227.498 20.74C227.498 20.6093 227.535 20.516 227.61 20.46C227.703 20.3853 227.797 20.3387 227.89 20.32C228.002 20.2827 228.077 20.2547 228.114 20.236C228.133 19.228 228.142 16.876 228.142 13.18C228.142 10.4547 228.03 8.34533 227.806 6.852C227.601 5.34 227.498 4.528 227.498 4.416C227.498 4.15467 227.591 3.94933 227.778 3.8C227.983 3.65067 228.189 3.576 228.394 3.576C228.525 3.576 228.627 3.632 228.702 3.744C228.777 3.83733 228.833 3.996 228.87 4.22C229.057 4.85467 229.197 6.02133 229.29 7.72C229.402 9.41867 229.458 11.192 229.458 13.04C229.458 14.608 229.449 16.064 229.43 17.408C229.411 18.752 229.402 19.6573 229.402 20.124C229.645 20.1053 230.111 20.0773 230.802 20.04C231.493 19.984 232.202 19.928 232.93 19.872C234.013 19.7413 235.235 19.5453 236.598 19.284C237.699 19.0787 238.362 18.976 238.586 18.976C238.791 18.976 238.922 19.0693 238.978 19.256C239.034 19.4427 239.062 19.6667 239.062 19.928C239.062 20.1707 238.95 20.3667 238.726 20.516C238.521 20.6653 238.269 20.7493 237.97 20.768ZM259.452 26.9C259.452 27.0307 259.377 27.1333 259.227 27.208C259.097 27.2827 258.948 27.32 258.78 27.32C258.369 27.32 258.024 27.1987 257.744 26.956C257.482 26.732 257.352 26.396 257.352 25.948C257.352 23.596 257.37 21.6733 257.407 20.18L257.464 17.688C257.52 15.952 257.547 14.6547 257.547 13.796C255.681 17.9587 253.852 21.0947 252.06 23.204C250.267 25.332 248.261 26.396 246.039 26.396C244.397 26.396 243.193 25.892 242.427 24.884C241.662 23.876 241.279 22.308 241.279 20.18C241.279 17.324 241.923 14.5333 243.211 11.808C244.499 9.064 246.151 6.83333 248.167 5.116C250.202 3.39867 252.255 2.54 254.327 2.54C254.981 2.54 255.42 2.74533 255.644 3.156C255.886 3.56667 256.007 3.996 256.007 4.444C256.007 4.91067 255.961 5.284 255.867 5.564C255.793 5.82533 255.699 5.956 255.587 5.956C255.494 5.956 255.419 5.872 255.363 5.704C255.326 5.536 255.279 5.23733 255.223 4.808C255.168 4.39733 255.074 4.09867 254.943 3.912C254.813 3.70667 254.58 3.604 254.243 3.604C252.526 3.604 250.753 4.444 248.923 6.124C247.113 7.804 245.601 9.932 244.387 12.508C243.193 15.0653 242.595 17.5667 242.595 20.012C242.595 21.5613 242.847 22.7653 243.351 23.624C243.874 24.5013 244.807 24.94 246.151 24.94C247.607 24.94 248.961 24.3707 250.211 23.232C251.462 22.0933 252.573 20.6933 253.544 19.032C254.533 17.352 255.7 15.1307 257.043 12.368C256.091 12.5547 254.757 12.928 253.04 13.488C252.312 13.7307 251.947 13.852 251.947 13.852L250.911 14.188C250.221 14.4307 249.661 14.6173 249.231 14.748C248.802 14.86 248.447 14.916 248.167 14.916C247.981 14.916 247.831 14.832 247.719 14.664C247.626 14.4773 247.579 14.2813 247.579 14.076C247.579 13.8147 247.962 13.5533 248.727 13.292C249.493 13.012 250.641 12.704 252.171 12.368C252.769 12.2373 253.628 12.0133 254.748 11.696C254.934 11.64 255.494 11.4907 256.428 11.248C257.38 11.0053 258.042 10.884 258.416 10.884C258.453 10.884 258.555 10.884 258.723 10.884C258.91 10.884 259.041 10.9587 259.115 11.108C259.19 11.2387 259.227 11.4533 259.227 11.752C259.227 11.92 259.116 12.0693 258.892 12.2L258.864 14.356C258.808 15.812 258.78 17.3987 258.78 19.116V23.092V24.632C258.817 25.2667 258.882 25.7147 258.975 25.976C259.069 26.256 259.171 26.452 259.284 26.564C259.396 26.6947 259.452 26.8067 259.452 26.9ZM277.529 22.476C277.155 22.476 276.81 22.084 276.493 21.3C276.194 20.516 276.007 19.704 275.933 18.864C275.858 18.1547 275.783 16.5027 275.709 13.908C275.671 12.8253 275.643 12.1533 275.625 11.892C274.337 15.028 272.862 17.7813 271.201 20.152C269.558 22.5227 268.009 23.708 266.553 23.708C265.825 23.708 265.19 23.2693 264.649 22.392C264.126 21.5147 263.725 20.3387 263.445 18.864C263.165 17.3707 263.025 15.7373 263.025 13.964C263.025 12.5267 263.109 10.9027 263.277 9.092C263.445 7.26267 263.65 5.94667 263.893 5.144C263.967 4.92 264.07 4.74267 264.201 4.612C264.35 4.46267 264.518 4.388 264.705 4.388C265.171 4.388 265.405 4.56533 265.405 4.92C265.405 4.976 265.227 5.648 264.873 6.936C264.518 8.224 264.341 10.632 264.341 14.16C264.341 16.4933 264.555 18.416 264.985 19.928C265.433 21.4213 266.058 22.168 266.861 22.168C267.645 22.168 268.578 21.5333 269.661 20.264C270.743 18.976 271.77 17.4453 272.741 15.672C273.73 13.8987 274.449 12.34 274.897 10.996C275.195 10.0067 275.391 8.52267 275.485 6.544C275.541 5.77867 275.587 5.37733 275.625 5.34C275.774 5.15333 275.998 5.06 276.297 5.06C276.633 5.06 276.801 5.51733 276.801 6.432C276.801 7.53333 276.829 9.624 276.885 12.704C276.959 15.784 277.043 17.7347 277.137 18.556C277.211 19.2467 277.342 19.788 277.529 20.18C277.734 20.572 277.949 20.8987 278.173 21.16C278.397 21.4213 278.509 21.5893 278.509 21.664C278.509 21.888 278.415 22.0747 278.229 22.224C278.042 22.392 277.809 22.476 277.529 22.476ZM291.597 17.576C290.458 18.584 289.282 19.536 288.069 20.432C286.874 21.328 285.875 21.9627 285.073 22.336C285.017 22.5413 284.933 22.6907 284.821 22.784C284.709 22.896 284.541 22.952 284.317 22.952C284.149 22.952 284.027 22.9147 283.953 22.84C283.878 22.784 283.841 22.672 283.841 22.504C283.841 22.392 283.878 21.9253 283.953 21.104C284.046 20.2827 284.093 19.3213 284.093 18.22C284.093 16.3533 284.065 14.664 284.009 13.152C283.971 11.3973 283.953 10.1653 283.953 9.456C283.953 8.35467 284.065 7.44933 284.289 6.74C284.457 6.292 284.755 6.068 285.185 6.068C285.334 6.068 285.465 6.096 285.577 6.152C285.707 6.208 285.773 6.292 285.773 6.404C285.754 6.49733 285.651 6.824 285.465 7.384C285.297 7.944 285.213 8.476 285.213 8.98C285.213 10.38 285.241 11.9107 285.297 13.572C285.334 15.7 285.353 17.1747 285.353 17.996C285.353 19.396 285.343 20.236 285.325 20.516C285.997 20.2547 286.902 19.7133 288.041 18.892C289.198 18.0707 290.169 17.324 290.953 16.652C292.577 15.196 293.762 13.8893 294.509 12.732C295.255 11.5747 295.629 10.3707 295.629 9.12C295.629 7.608 294.677 6.572 292.773 6.012C290.887 5.452 288.414 5.172 285.353 5.172C284.419 5.172 283.169 5.284 281.601 5.508C281.302 5.52667 280.835 5.62 280.201 5.788C279.921 5.88133 279.725 5.928 279.613 5.928C279.463 5.928 279.323 5.80667 279.193 5.564C279.043 5.32133 278.969 5.07867 278.969 4.836C278.969 4.74267 279.034 4.65867 279.165 4.584C279.295 4.49067 279.501 4.42533 279.781 4.388C280.901 4.23867 281.853 4.12667 282.637 4.052C283.439 3.97733 284.373 3.94 285.437 3.94C288.834 3.94 291.597 4.32267 293.725 5.088C295.871 5.85333 296.945 7.15067 296.945 8.98C296.945 10.436 296.525 11.8173 295.685 13.124C294.845 14.4307 293.482 15.9147 291.597 17.576Z" fill="#189CAB"/>
</svg>
