<svg width="201" height="306" viewBox="0 0 201 306" fill="none" xmlns="http://www.w3.org/2000/svg">
<path d="M103.086 86.9476C98.1031 101.058 93.6576 115.881 87.0398 128.847C86.2037 130.476 84.4857 129.895 84.9853 127.851C88.495 113.052 94.5876 98.8764 99.9511 84.7747C101.21 81.4167 104.274 83.6557 103.086 86.9476Z" fill="#A4BF39"/>
<path d="M111.826 135.528C111.339 141.136 110.325 146.869 108.756 152.383C107.381 157.103 105.552 163.228 102.532 166.539C101.022 168.195 99.6033 166.084 99.9714 163.9C100.779 159.465 103.406 155.048 104.703 150.646C106.15 145.86 107.179 140.973 107.718 136.051C108.123 132.361 112.198 131.745 111.826 135.528Z" fill="#A4BF39"/>
<path d="M99.4269 191.047C100.313 193.541 97.2977 196.358 96.4112 193.864C95.5246 191.371 98.5403 188.554 99.4269 191.047Z" fill="#A4BF39"/>
<path d="M130.303 157.071C128.412 163.23 126.45 169.456 124.455 175.59C123.668 177.912 121.207 177.401 121.962 174.987C123.821 168.737 125.848 162.694 127.81 156.468C128.565 154.055 131.058 154.657 130.303 157.071Z" fill="#A4BF39"/>
<path d="M124.886 201.928C122.415 205.797 120.858 210.383 118.355 214.161C117.318 215.73 115.544 214.97 115.662 212.93C116.171 207.512 119.3 202.065 121.982 198C124.197 194.731 126.928 198.7 124.886 201.928Z" fill="#A4BF39"/>
<path d="M126.322 93.8972C125.78 100.036 125.811 106.141 123.598 111.962C123.141 113.14 122.002 112.95 121.814 111.874C120.913 106.331 122.346 100.237 123.061 94.3115C123.522 91.5028 126.609 90.8748 126.322 93.8972Z" fill="#A4BF39"/>
<path d="M80.0681 282.839C78.6481 285.343 77.2281 287.846 75.8777 290.285C75.2401 291.35 74.6608 292.837 73.8896 293.789C73.1185 294.741 72.15 295.401 71.3845 296.111C70.6886 296.756 69.754 295.959 70.0869 294.82C70.4894 293.616 70.7264 292.209 71.2305 291.029C71.8041 289.785 72.6448 288.769 73.352 287.638C74.9431 285.095 76.5662 282.641 78.1574 280.098C79.5717 277.838 81.3809 280.554 80.0681 282.839Z" fill="#A4BF39"/>
<path d="M136.615 42.8075C136.23 45.5286 135.812 48.1564 135.182 50.7331C134.834 51.9281 134.03 52.9277 133.211 53.071C132.465 53.1466 131.559 52.5013 131.518 51.2974C131.443 50.0001 131.368 48.7029 131.472 47.3635C131.608 46.1173 131.639 44.8456 131.776 43.5995C131.892 41.7513 133.144 39.8366 134.458 39.7277C135.633 39.5 136.982 40.8494 136.615 42.8075Z" fill="#A4BF39"/>
<path d="M150.32 64.2975C149.908 68.0611 149.495 71.8247 149.009 75.6565C148.609 78.908 148.522 82.4928 147.377 85.5641C146.688 87.4582 144.878 87.0206 144.629 85.501C144.238 82.4875 144.864 78.7754 145.264 75.5239C145.637 71.9224 146.043 68.4148 146.416 64.8133C146.789 61.2118 150.766 60.6278 150.32 64.2975Z" fill="#A4BF39"/>
<path d="M105.35 21.1689C107.589 29.0313 111.119 38.1895 111.335 47.2547C111.348 50.1133 108.662 50.6193 107.869 48.9984C106.17 45.7291 105.517 41.1086 104.664 37.0637C103.745 32.5568 102.827 28.0499 102.062 23.402C101.588 20.9665 104.687 18.7765 105.35 21.1689Z" fill="#A4BF39"/>
<path d="M142.457 169.324C141.702 171.739 140.946 174.155 140.19 176.57C139.512 178.669 138.899 180.951 137.876 182.883C137.365 183.849 136.299 183.256 136.394 182.19C136.657 179.991 137.51 177.85 138.189 175.751C138.906 173.494 139.623 171.237 140.34 168.979C140.985 166.789 143.064 167.291 142.457 169.324Z" fill="#A4BF39"/>
<path d="M132.157 225.383C130.447 229.263 128.839 233.168 126.691 236.612C126.263 237.252 125.518 236.741 125.709 235.962C126.944 231.801 128.719 228.102 130.429 224.222C131.227 222.516 132.955 223.677 132.157 225.383Z" fill="#A4BF39"/>
<path d="M106.624 258.8C106.657 258.894 106.584 258.962 106.624 258.8C106.55 258.868 106.624 258.8 106.624 258.8Z" fill="#A4BF39"/>
<path d="M108.212 273.429C105.504 276.483 102.435 280.791 99.3489 282.804C98.3306 283.504 97.935 281.669 98.5591 280.636C99.7025 278.782 101.272 277.347 102.641 275.864C104.215 274.193 105.721 272.585 107.296 270.915C108.56 269.643 109.445 272.071 108.212 273.429Z" fill="#A4BF39"/>
<path d="M71.174 108.851C70.8864 111.873 70.6384 114.733 70.3508 117.755C70.1091 120.359 69.8611 123.22 69.0137 125.763C68.3979 127.59 66.6934 127.178 66.4446 125.657C66.0744 123.249 66.575 120.278 66.9233 117.7C67.2778 114.866 67.6323 112.031 67.9868 109.197C68.2013 106.243 71.5013 105.666 71.174 108.851Z" fill="#A4BF39"/>
<path d="M142.936 124.355C143.626 126.295 141.328 128.441 140.638 126.502C139.982 124.655 142.28 122.508 142.936 124.355Z" fill="#A4BF39"/>
</svg>
