<svg width="392" height="242" viewBox="0 0 392 242" fill="none" xmlns="http://www.w3.org/2000/svg">
<path d="M129.764 68.7756C142.498 79.9386 153.872 91.6619 170.752 101.928C172.885 103.218 177.245 102.766 175.964 101.15C166.967 89.4497 151.414 78.231 137.712 67.0733C134.496 64.4165 126.728 66.1713 129.764 68.7756Z" fill="#FBBD08" fill-opacity="0.34"/>
<path d="M107.589 107.208C108.856 111.639 111.466 116.172 115.484 120.534C119.003 124.268 123.684 129.114 131.376 131.743C135.222 133.058 138.813 131.396 137.866 129.669C135.788 126.162 129.089 122.662 125.769 119.18C122.067 115.393 119.425 111.528 118.026 107.638C116.977 104.721 106.622 104.218 107.589 107.208Z" fill="#FBBD08" fill-opacity="0.34"/>
<path d="M139.156 151.133C136.917 153.099 144.595 155.337 146.834 153.371C149.072 151.405 141.394 149.167 139.156 151.133Z" fill="#FBBD08" fill-opacity="0.34"/>
<path d="M60.7003 124.253C65.5382 129.125 70.5575 134.05 75.6591 138.903C77.6732 140.74 83.9199 140.347 81.9881 138.438C77.2325 133.493 72.0486 128.712 67.0293 123.787C65.0975 121.878 58.7685 122.343 60.7003 124.253Z" fill="#FBBD08" fill-opacity="0.34"/>
<path d="M74.4905 159.732C80.7857 162.796 84.7659 166.423 91.1426 169.416C93.7847 170.659 98.2845 170.067 97.974 168.457C96.6511 164.177 88.6759 159.864 81.8425 156.643C76.1997 154.053 69.2879 157.175 74.4905 159.732Z" fill="#FBBD08" fill-opacity="0.34"/>
<path d="M70.8129 74.2782C72.2253 79.133 72.1826 83.9588 77.8413 88.5694C79.0103 89.5024 81.9034 89.3577 82.3757 88.5079C84.6356 84.1304 80.9561 79.3064 79.1041 74.6198C77.916 72.3976 70.0645 71.8879 70.8129 74.2782Z" fill="#FBBD08" fill-opacity="0.34"/>
<path d="M188.305 223.742C191.924 225.723 195.542 227.704 198.983 229.634C200.607 230.477 202.086 231.653 204.048 232.407C206.011 233.161 208.473 233.686 210.42 234.249C212.189 234.761 214.557 234.137 213.706 233.236C212.678 232.284 212.068 231.173 210.782 230.241C209.319 229.257 207.18 228.451 205.379 227.556C201.326 225.543 197.193 223.6 193.14 221.587C189.537 219.797 184.961 221.933 188.305 223.742Z" fill="#FBBD08" fill-opacity="0.34"/>
<path d="M44.7032 33.8586C45.6979 36.0106 46.7764 38.089 48.392 40.1279C49.2835 41.0738 51.3329 41.8671 53.4145 41.9839C55.3114 42.0468 57.6099 41.5407 57.7087 40.5895C57.8912 39.5647 58.0738 38.5399 57.803 37.481C57.4485 36.4956 57.3625 35.4906 57.008 34.5052C56.7029 33.0443 53.5106 31.5258 50.1702 31.4341C47.182 31.2491 43.7601 32.3097 44.7032 33.8586Z" fill="#FBBD08" fill-opacity="0.34"/>
<path d="M9.8529 50.8602C10.9234 53.8369 11.9939 56.8137 13.2506 59.8446C14.2866 62.4165 14.5282 65.2504 17.4581 67.6831C19.2195 69.1831 23.8189 68.8451 24.4426 67.645C25.4194 65.2647 23.8078 62.3277 22.7718 59.7559C21.803 56.9075 20.7497 54.1332 19.7809 51.2848C18.8121 48.4364 8.69795 47.9576 9.8529 50.8602Z" fill="#FBBD08" fill-opacity="0.34"/>
<path d="M124.055 16.7475C118.395 22.9622 109.456 30.1972 108.955 37.3724C108.938 39.6352 115.781 40.0467 117.793 38.7669C122.102 36.1859 123.739 32.531 125.89 29.3326C128.205 25.7688 130.52 22.2049 132.443 18.5288C133.637 16.6027 125.732 14.8565 124.055 16.7475Z" fill="#FBBD08" fill-opacity="0.34"/>
<path d="M29.8547 133.948C31.7879 135.859 33.7211 137.769 35.6543 139.68C37.3892 141.341 38.9593 143.146 41.5682 144.676C42.8727 145.441 45.5771 144.978 45.3282 144.135C44.6489 142.397 42.4686 140.703 40.7338 139.042C38.8997 137.256 37.0657 135.471 35.2316 133.685C33.5791 131.952 28.3014 132.34 29.8547 133.948Z" fill="#FBBD08" fill-opacity="0.34"/>
<path d="M56.021 178.294C60.3859 181.364 64.4903 184.453 69.9624 187.181C71.0535 187.687 72.9423 187.287 72.4536 186.671C69.2936 183.382 64.7659 180.454 60.401 177.384C58.3652 176.034 53.9851 176.943 56.021 178.294Z" fill="#FBBD08" fill-opacity="0.34"/>
<path d="M120.888 204.735C120.803 204.809 120.99 204.864 120.888 204.735C121.075 204.789 120.888 204.735 120.888 204.735Z" fill="#FBBD08" fill-opacity="0.34"/>
<path d="M116.852 216.299C123.737 218.716 131.545 222.125 139.385 223.724C141.972 224.28 142.966 222.835 141.377 222.018C138.466 220.552 134.478 219.415 130.996 218.24C126.993 216.917 123.164 215.643 119.162 214.32C115.947 213.312 113.716 215.223 116.852 216.299Z" fill="#FBBD08" fill-opacity="0.34"/>
<path d="M210.86 86.1091C211.609 88.4994 212.255 90.7613 213.004 93.1516C213.633 95.211 214.28 97.4729 216.449 99.487C218.025 100.933 222.355 100.615 222.979 99.4146C223.907 97.5125 222.617 95.162 221.717 93.1225C220.8 90.8805 219.882 88.6385 218.965 86.3965C218.403 84.0604 210.01 83.5905 210.86 86.1091Z" fill="#FBBD08" fill-opacity="0.34"/>
<path d="M28.665 98.3754C26.9246 99.9043 32.7735 101.609 34.5139 100.08C36.1714 98.6243 30.3226 96.9194 28.665 98.3754Z" fill="#FBBD08" fill-opacity="0.34"/>
</svg>
